<mxfile host="Electron" modified="2023-11-20T19:37:37.983Z" agent="Mozilla/5.0 (Windows NT 10.0; Win64; x64) AppleWebKit/537.36 (KHTML, like Gecko) draw.io/22.0.3 Chrome/114.0.5735.289 Electron/25.8.4 Safari/537.36" etag="jvKW4sBJ9xHJaxrqD8yA" version="22.0.3" type="device">
  <diagram id="R2lEEEUBdFMjLlhIrx00" name="Page-1">
    <mxGraphModel dx="1290" dy="621" grid="1" gridSize="10" guides="1" tooltips="1" connect="1" arrows="1" fold="1" page="1" pageScale="1" pageWidth="850" pageHeight="1100" math="0" shadow="0" extFonts="Permanent Marker^https://fonts.googleapis.com/css?family=Permanent+Marker">
      <root>
        <mxCell id="0" />
        <mxCell id="1" parent="0" />
        <mxCell id="94Th0ascxjRRAc_AjEBm-10" style="edgeStyle=orthogonalEdgeStyle;rounded=0;orthogonalLoop=1;jettySize=auto;html=1;exitX=0.5;exitY=1;exitDx=0;exitDy=0;entryX=0.5;entryY=0;entryDx=0;entryDy=0;curved=1;" parent="1" source="94Th0ascxjRRAc_AjEBm-12" target="94Th0ascxjRRAc_AjEBm-15" edge="1">
          <mxGeometry relative="1" as="geometry">
            <mxPoint x="2363.5" y="1105" as="targetPoint" />
          </mxGeometry>
        </mxCell>
        <mxCell id="94Th0ascxjRRAc_AjEBm-11" style="edgeStyle=orthogonalEdgeStyle;rounded=0;orthogonalLoop=1;jettySize=auto;html=1;entryX=0.5;entryY=0;entryDx=0;entryDy=0;exitX=0.25;exitY=1;exitDx=0;exitDy=0;curved=1;" parent="1" source="94Th0ascxjRRAc_AjEBm-12" target="94Th0ascxjRRAc_AjEBm-13" edge="1">
          <mxGeometry relative="1" as="geometry" />
        </mxCell>
        <mxCell id="94Th0ascxjRRAc_AjEBm-204" style="edgeStyle=orthogonalEdgeStyle;curved=1;rounded=0;orthogonalLoop=1;jettySize=auto;html=1;exitX=0.75;exitY=1;exitDx=0;exitDy=0;entryX=0.5;entryY=0;entryDx=0;entryDy=0;fontFamily=Helvetica;fontSize=12;fontColor=default;" parent="1" source="94Th0ascxjRRAc_AjEBm-12" target="Hyo_tde0UCPhsCr7JcuF-6" edge="1">
          <mxGeometry relative="1" as="geometry">
            <mxPoint x="2343.4999999999995" y="1320" as="targetPoint" />
          </mxGeometry>
        </mxCell>
        <mxCell id="Hyo_tde0UCPhsCr7JcuF-13" style="edgeStyle=orthogonalEdgeStyle;curved=1;rounded=0;orthogonalLoop=1;jettySize=auto;html=1;exitX=0;exitY=0.75;exitDx=0;exitDy=0;entryX=1;entryY=0.5;entryDx=0;entryDy=0;" parent="1" source="94Th0ascxjRRAc_AjEBm-12" target="Hyo_tde0UCPhsCr7JcuF-1" edge="1">
          <mxGeometry relative="1" as="geometry" />
        </mxCell>
        <mxCell id="Hyo_tde0UCPhsCr7JcuF-18" style="edgeStyle=orthogonalEdgeStyle;curved=1;rounded=0;orthogonalLoop=1;jettySize=auto;html=1;exitX=1;exitY=0.25;exitDx=0;exitDy=0;entryX=0;entryY=0.5;entryDx=0;entryDy=0;" parent="1" source="94Th0ascxjRRAc_AjEBm-12" target="Hyo_tde0UCPhsCr7JcuF-7" edge="1">
          <mxGeometry relative="1" as="geometry" />
        </mxCell>
        <mxCell id="Hyo_tde0UCPhsCr7JcuF-19" style="edgeStyle=orthogonalEdgeStyle;curved=1;rounded=0;orthogonalLoop=1;jettySize=auto;html=1;exitX=1;exitY=0.75;exitDx=0;exitDy=0;entryX=0.5;entryY=0;entryDx=0;entryDy=0;" parent="1" source="94Th0ascxjRRAc_AjEBm-12" target="Hyo_tde0UCPhsCr7JcuF-5" edge="1">
          <mxGeometry relative="1" as="geometry" />
        </mxCell>
        <mxCell id="bkkktYJN0JZugh-2cCem-1" style="edgeStyle=orthogonalEdgeStyle;rounded=0;orthogonalLoop=1;jettySize=auto;html=1;exitX=0.5;exitY=0;exitDx=0;exitDy=0;entryX=0.5;entryY=1;entryDx=0;entryDy=0;" edge="1" parent="1" source="94Th0ascxjRRAc_AjEBm-12" target="Hyo_tde0UCPhsCr7JcuF-8">
          <mxGeometry relative="1" as="geometry" />
        </mxCell>
        <mxCell id="94Th0ascxjRRAc_AjEBm-12" value="UserAccount" style="rounded=1;arcSize=10;whiteSpace=wrap;html=1;align=center;" parent="1" vertex="1">
          <mxGeometry x="2223.5" y="1120" width="100" height="40" as="geometry" />
        </mxCell>
        <mxCell id="94Th0ascxjRRAc_AjEBm-13" value="SSN" style="ellipse;whiteSpace=wrap;html=1;align=center;fontStyle=4;" parent="1" vertex="1">
          <mxGeometry x="2025" y="1210" width="100" height="40" as="geometry" />
        </mxCell>
        <mxCell id="94Th0ascxjRRAc_AjEBm-15" value="UserType" style="ellipse;whiteSpace=wrap;html=1;align=center;" parent="1" vertex="1">
          <mxGeometry x="2147" y="1280" width="100" height="40" as="geometry" />
        </mxCell>
        <mxCell id="94Th0ascxjRRAc_AjEBm-17" style="edgeStyle=orthogonalEdgeStyle;rounded=0;orthogonalLoop=1;jettySize=auto;html=1;exitX=0.5;exitY=0;exitDx=0;exitDy=0;entryX=0.5;entryY=1;entryDx=0;entryDy=0;curved=1;" parent="1" source="94Th0ascxjRRAc_AjEBm-19" target="94Th0ascxjRRAc_AjEBm-32" edge="1">
          <mxGeometry relative="1" as="geometry">
            <mxPoint x="475" y="127.5" as="targetPoint" />
          </mxGeometry>
        </mxCell>
        <mxCell id="94Th0ascxjRRAc_AjEBm-18" style="edgeStyle=orthogonalEdgeStyle;rounded=0;orthogonalLoop=1;jettySize=auto;html=1;entryX=0.5;entryY=1;entryDx=0;entryDy=0;curved=1;" parent="1" source="94Th0ascxjRRAc_AjEBm-19" target="94Th0ascxjRRAc_AjEBm-20" edge="1">
          <mxGeometry relative="1" as="geometry" />
        </mxCell>
        <mxCell id="94Th0ascxjRRAc_AjEBm-19" value="UserProfileInfo" style="rounded=1;arcSize=10;whiteSpace=wrap;html=1;align=center;" parent="1" vertex="1">
          <mxGeometry x="375" y="177.5" width="100" height="40" as="geometry" />
        </mxCell>
        <mxCell id="94Th0ascxjRRAc_AjEBm-20" value="userId" style="ellipse;whiteSpace=wrap;html=1;align=center;fontStyle=4;" parent="1" vertex="1">
          <mxGeometry x="315" y="77.5" width="100" height="40" as="geometry" />
        </mxCell>
        <mxCell id="94Th0ascxjRRAc_AjEBm-22" style="edgeStyle=orthogonalEdgeStyle;rounded=0;orthogonalLoop=1;jettySize=auto;html=1;exitX=0.5;exitY=1;exitDx=0;exitDy=0;curved=1;" parent="1" source="94Th0ascxjRRAc_AjEBm-24" target="94Th0ascxjRRAc_AjEBm-33" edge="1">
          <mxGeometry relative="1" as="geometry">
            <mxPoint x="320" y="1420" as="targetPoint" />
          </mxGeometry>
        </mxCell>
        <mxCell id="94Th0ascxjRRAc_AjEBm-23" style="edgeStyle=orthogonalEdgeStyle;rounded=0;orthogonalLoop=1;jettySize=auto;html=1;entryX=0.5;entryY=0;entryDx=0;entryDy=0;curved=1;exitX=0;exitY=0.5;exitDx=0;exitDy=0;" parent="1" source="94Th0ascxjRRAc_AjEBm-24" target="94Th0ascxjRRAc_AjEBm-25" edge="1">
          <mxGeometry relative="1" as="geometry">
            <mxPoint x="330" y="1235" as="sourcePoint" />
          </mxGeometry>
        </mxCell>
        <mxCell id="94Th0ascxjRRAc_AjEBm-52" style="edgeStyle=orthogonalEdgeStyle;curved=1;rounded=0;orthogonalLoop=1;jettySize=auto;html=1;exitX=1;exitY=0.5;exitDx=0;exitDy=0;entryX=0.5;entryY=0;entryDx=0;entryDy=0;" parent="1" source="94Th0ascxjRRAc_AjEBm-24" target="94Th0ascxjRRAc_AjEBm-51" edge="1">
          <mxGeometry relative="1" as="geometry" />
        </mxCell>
        <mxCell id="94Th0ascxjRRAc_AjEBm-24" value="Warning" style="rounded=1;arcSize=10;whiteSpace=wrap;html=1;align=center;" parent="1" vertex="1">
          <mxGeometry x="345" y="1135" width="100" height="40" as="geometry" />
        </mxCell>
        <mxCell id="94Th0ascxjRRAc_AjEBm-25" value="warningId" style="ellipse;whiteSpace=wrap;html=1;align=center;fontStyle=4;" parent="1" vertex="1">
          <mxGeometry x="240" y="1240" width="100" height="40" as="geometry" />
        </mxCell>
        <mxCell id="94Th0ascxjRRAc_AjEBm-56" style="edgeStyle=orthogonalEdgeStyle;curved=1;rounded=0;orthogonalLoop=1;jettySize=auto;html=1;exitX=1;exitY=0.25;exitDx=0;exitDy=0;" parent="1" source="94Th0ascxjRRAc_AjEBm-29" target="94Th0ascxjRRAc_AjEBm-53" edge="1">
          <mxGeometry relative="1" as="geometry" />
        </mxCell>
        <mxCell id="94Th0ascxjRRAc_AjEBm-58" style="edgeStyle=orthogonalEdgeStyle;curved=1;rounded=0;orthogonalLoop=1;jettySize=auto;html=1;exitX=1;exitY=0.5;exitDx=0;exitDy=0;entryX=0.5;entryY=0;entryDx=0;entryDy=0;" parent="1" source="94Th0ascxjRRAc_AjEBm-29" target="94Th0ascxjRRAc_AjEBm-54" edge="1">
          <mxGeometry relative="1" as="geometry" />
        </mxCell>
        <mxCell id="94Th0ascxjRRAc_AjEBm-59" style="edgeStyle=orthogonalEdgeStyle;curved=1;rounded=0;orthogonalLoop=1;jettySize=auto;html=1;exitX=0.5;exitY=1;exitDx=0;exitDy=0;" parent="1" source="94Th0ascxjRRAc_AjEBm-29" target="94Th0ascxjRRAc_AjEBm-55" edge="1">
          <mxGeometry relative="1" as="geometry" />
        </mxCell>
        <mxCell id="94Th0ascxjRRAc_AjEBm-274" style="edgeStyle=orthogonalEdgeStyle;curved=1;rounded=0;orthogonalLoop=1;jettySize=auto;html=1;exitX=0.25;exitY=1;exitDx=0;exitDy=0;entryX=0.5;entryY=0;entryDx=0;entryDy=0;fontFamily=Helvetica;fontSize=12;fontColor=default;" parent="1" source="94Th0ascxjRRAc_AjEBm-29" target="94Th0ascxjRRAc_AjEBm-30" edge="1">
          <mxGeometry relative="1" as="geometry" />
        </mxCell>
        <mxCell id="94Th0ascxjRRAc_AjEBm-276" style="edgeStyle=orthogonalEdgeStyle;curved=1;rounded=0;orthogonalLoop=1;jettySize=auto;html=1;exitX=0;exitY=0.5;exitDx=0;exitDy=0;entryX=0.5;entryY=1;entryDx=0;entryDy=0;fontFamily=Helvetica;fontSize=12;fontColor=default;" parent="1" source="94Th0ascxjRRAc_AjEBm-29" target="94Th0ascxjRRAc_AjEBm-34" edge="1">
          <mxGeometry relative="1" as="geometry" />
        </mxCell>
        <mxCell id="94Th0ascxjRRAc_AjEBm-29" value="OfficeHour" style="rounded=1;arcSize=10;whiteSpace=wrap;html=1;align=center;" parent="1" vertex="1">
          <mxGeometry x="886" y="550" width="100" height="40" as="geometry" />
        </mxCell>
        <mxCell id="94Th0ascxjRRAc_AjEBm-30" value="officeHourId" style="ellipse;whiteSpace=wrap;html=1;align=center;fontStyle=4;" parent="1" vertex="1">
          <mxGeometry x="766" y="640" width="100" height="40" as="geometry" />
        </mxCell>
        <mxCell id="94Th0ascxjRRAc_AjEBm-32" value="firstName" style="ellipse;whiteSpace=wrap;html=1;align=center;" parent="1" vertex="1">
          <mxGeometry x="435" y="77.5" width="100" height="40" as="geometry" />
        </mxCell>
        <mxCell id="94Th0ascxjRRAc_AjEBm-33" value="reason" style="ellipse;whiteSpace=wrap;html=1;align=center;" parent="1" vertex="1">
          <mxGeometry x="345" y="1300" width="100" height="40" as="geometry" />
        </mxCell>
        <mxCell id="94Th0ascxjRRAc_AjEBm-34" value="fromTime" style="ellipse;whiteSpace=wrap;html=1;align=center;" parent="1" vertex="1">
          <mxGeometry x="761" y="490" width="100" height="40" as="geometry" />
        </mxCell>
        <mxCell id="94Th0ascxjRRAc_AjEBm-35" style="edgeStyle=orthogonalEdgeStyle;rounded=0;orthogonalLoop=1;jettySize=auto;html=1;exitX=1;exitY=0;exitDx=0;exitDy=0;entryX=0.5;entryY=1;entryDx=0;entryDy=0;curved=1;" parent="1" source="94Th0ascxjRRAc_AjEBm-19" target="94Th0ascxjRRAc_AjEBm-36" edge="1">
          <mxGeometry relative="1" as="geometry">
            <mxPoint x="525" y="152.5" as="sourcePoint" />
            <mxPoint x="575" y="102.5" as="targetPoint" />
          </mxGeometry>
        </mxCell>
        <mxCell id="94Th0ascxjRRAc_AjEBm-36" value="lastName" style="ellipse;whiteSpace=wrap;html=1;align=center;" parent="1" vertex="1">
          <mxGeometry x="540" y="77.5" width="100" height="40" as="geometry" />
        </mxCell>
        <mxCell id="94Th0ascxjRRAc_AjEBm-37" style="edgeStyle=orthogonalEdgeStyle;rounded=0;orthogonalLoop=1;jettySize=auto;html=1;exitX=1;exitY=1;exitDx=0;exitDy=0;entryX=0.5;entryY=0;entryDx=0;entryDy=0;curved=1;" parent="1" source="94Th0ascxjRRAc_AjEBm-19" target="94Th0ascxjRRAc_AjEBm-38" edge="1">
          <mxGeometry relative="1" as="geometry">
            <mxPoint x="515" y="276.97" as="sourcePoint" />
            <mxPoint x="575" y="246.9699999999998" as="targetPoint" />
          </mxGeometry>
        </mxCell>
        <mxCell id="94Th0ascxjRRAc_AjEBm-38" value="biography" style="ellipse;whiteSpace=wrap;html=1;align=center;" parent="1" vertex="1">
          <mxGeometry x="560" y="295" width="100" height="40" as="geometry" />
        </mxCell>
        <mxCell id="94Th0ascxjRRAc_AjEBm-39" style="edgeStyle=orthogonalEdgeStyle;rounded=0;orthogonalLoop=1;jettySize=auto;html=1;exitX=0.75;exitY=1;exitDx=0;exitDy=0;entryX=0.5;entryY=0;entryDx=0;entryDy=0;curved=1;" parent="1" source="94Th0ascxjRRAc_AjEBm-19" target="94Th0ascxjRRAc_AjEBm-40" edge="1">
          <mxGeometry relative="1" as="geometry">
            <mxPoint x="405" y="307.5" as="sourcePoint" />
            <mxPoint x="505" y="212.5" as="targetPoint" />
          </mxGeometry>
        </mxCell>
        <mxCell id="94Th0ascxjRRAc_AjEBm-40" value="profilePictureURL" style="ellipse;whiteSpace=wrap;html=1;align=center;" parent="1" vertex="1">
          <mxGeometry x="435" y="300" width="110" height="40" as="geometry" />
        </mxCell>
        <mxCell id="94Th0ascxjRRAc_AjEBm-41" style="edgeStyle=orthogonalEdgeStyle;rounded=0;orthogonalLoop=1;jettySize=auto;html=1;exitX=0.25;exitY=1;exitDx=0;exitDy=0;entryX=0.5;entryY=0;entryDx=0;entryDy=0;curved=1;" parent="1" source="94Th0ascxjRRAc_AjEBm-19" target="94Th0ascxjRRAc_AjEBm-42" edge="1">
          <mxGeometry relative="1" as="geometry">
            <mxPoint x="305" y="307.5" as="sourcePoint" />
            <mxPoint x="405" y="212.5" as="targetPoint" />
          </mxGeometry>
        </mxCell>
        <mxCell id="94Th0ascxjRRAc_AjEBm-42" value="permission" style="ellipse;whiteSpace=wrap;html=1;align=center;" parent="1" vertex="1">
          <mxGeometry x="280" y="295" width="100" height="40" as="geometry" />
        </mxCell>
        <mxCell id="94Th0ascxjRRAc_AjEBm-43" style="edgeStyle=orthogonalEdgeStyle;rounded=0;orthogonalLoop=1;jettySize=auto;html=1;exitX=0;exitY=0.5;exitDx=0;exitDy=0;entryX=0.5;entryY=1;entryDx=0;entryDy=0;curved=1;" parent="1" source="94Th0ascxjRRAc_AjEBm-19" target="94Th0ascxjRRAc_AjEBm-44" edge="1">
          <mxGeometry relative="1" as="geometry">
            <mxPoint x="255" y="232.24" as="sourcePoint" />
            <mxPoint x="355" y="137.24" as="targetPoint" />
          </mxGeometry>
        </mxCell>
        <mxCell id="94Th0ascxjRRAc_AjEBm-48" style="edgeStyle=orthogonalEdgeStyle;curved=1;rounded=0;orthogonalLoop=1;jettySize=auto;html=1;exitX=0.5;exitY=0;exitDx=0;exitDy=0;entryX=0.5;entryY=1;entryDx=0;entryDy=0;" parent="1" source="94Th0ascxjRRAc_AjEBm-44" target="94Th0ascxjRRAc_AjEBm-45" edge="1">
          <mxGeometry relative="1" as="geometry" />
        </mxCell>
        <mxCell id="94Th0ascxjRRAc_AjEBm-50" style="edgeStyle=orthogonalEdgeStyle;curved=1;rounded=0;orthogonalLoop=1;jettySize=auto;html=1;exitX=0;exitY=0.5;exitDx=0;exitDy=0;entryX=0.5;entryY=1;entryDx=0;entryDy=0;" parent="1" source="94Th0ascxjRRAc_AjEBm-44" target="94Th0ascxjRRAc_AjEBm-46" edge="1">
          <mxGeometry relative="1" as="geometry" />
        </mxCell>
        <mxCell id="94Th0ascxjRRAc_AjEBm-44" value="contactData" style="ellipse;whiteSpace=wrap;html=1;align=center;" parent="1" vertex="1">
          <mxGeometry x="205" y="157.5" width="100" height="40" as="geometry" />
        </mxCell>
        <mxCell id="94Th0ascxjRRAc_AjEBm-45" value="data" style="ellipse;shape=doubleEllipse;margin=3;whiteSpace=wrap;html=1;align=center;" parent="1" vertex="1">
          <mxGeometry x="175" y="77.5" width="100" height="40" as="geometry" />
        </mxCell>
        <mxCell id="94Th0ascxjRRAc_AjEBm-46" value="ofWhat" style="ellipse;shape=doubleEllipse;margin=3;whiteSpace=wrap;html=1;align=center;" parent="1" vertex="1">
          <mxGeometry x="75" y="117.5" width="100" height="40" as="geometry" />
        </mxCell>
        <mxCell id="94Th0ascxjRRAc_AjEBm-51" value="date" style="ellipse;whiteSpace=wrap;html=1;align=center;" parent="1" vertex="1">
          <mxGeometry x="460" y="1280" width="100" height="40" as="geometry" />
        </mxCell>
        <mxCell id="94Th0ascxjRRAc_AjEBm-53" value="toTime" style="ellipse;whiteSpace=wrap;html=1;align=center;" parent="1" vertex="1">
          <mxGeometry x="1086" y="510" width="100" height="40" as="geometry" />
        </mxCell>
        <mxCell id="94Th0ascxjRRAc_AjEBm-54" value="weekDay" style="ellipse;whiteSpace=wrap;html=1;align=center;" parent="1" vertex="1">
          <mxGeometry x="1036" y="600" width="100" height="40" as="geometry" />
        </mxCell>
        <mxCell id="94Th0ascxjRRAc_AjEBm-55" value="location" style="ellipse;whiteSpace=wrap;html=1;align=center;" parent="1" vertex="1">
          <mxGeometry x="896" y="675" width="100" height="40" as="geometry" />
        </mxCell>
        <mxCell id="94Th0ascxjRRAc_AjEBm-60" style="edgeStyle=orthogonalEdgeStyle;rounded=0;orthogonalLoop=1;jettySize=auto;html=1;exitX=0.5;exitY=0;exitDx=0;exitDy=0;entryX=0.5;entryY=1;entryDx=0;entryDy=0;curved=1;" parent="1" source="94Th0ascxjRRAc_AjEBm-121" target="94Th0ascxjRRAc_AjEBm-73" edge="1">
          <mxGeometry relative="1" as="geometry">
            <mxPoint x="404.60000000000014" y="772.1599999999999" as="sourcePoint" />
            <mxPoint x="439.9999999999998" y="735" as="targetPoint" />
          </mxGeometry>
        </mxCell>
        <mxCell id="94Th0ascxjRRAc_AjEBm-62" style="edgeStyle=orthogonalEdgeStyle;curved=1;rounded=0;orthogonalLoop=1;jettySize=auto;html=1;exitX=1;exitY=0.25;exitDx=0;exitDy=0;" parent="1" source="94Th0ascxjRRAc_AjEBm-121" target="94Th0ascxjRRAc_AjEBm-74" edge="1">
          <mxGeometry relative="1" as="geometry">
            <mxPoint x="432.5" y="775" as="sourcePoint" />
            <mxPoint x="500" y="765" as="targetPoint" />
          </mxGeometry>
        </mxCell>
        <mxCell id="94Th0ascxjRRAc_AjEBm-70" value="noOfHours" style="ellipse;whiteSpace=wrap;html=1;align=center;" parent="1" vertex="1">
          <mxGeometry x="530" y="890" width="100" height="40" as="geometry" />
        </mxCell>
        <mxCell id="94Th0ascxjRRAc_AjEBm-71" value="gpa" style="ellipse;whiteSpace=wrap;html=1;align=center;" parent="1" vertex="1">
          <mxGeometry x="470" y="945" width="100" height="40" as="geometry" />
        </mxCell>
        <mxCell id="94Th0ascxjRRAc_AjEBm-73" value="minor" style="ellipse;whiteSpace=wrap;html=1;align=center;" parent="1" vertex="1">
          <mxGeometry x="200" y="580" width="100" height="40" as="geometry" />
        </mxCell>
        <mxCell id="94Th0ascxjRRAc_AjEBm-74" value="level" style="ellipse;whiteSpace=wrap;html=1;align=center;" parent="1" vertex="1">
          <mxGeometry x="630" y="645" width="100" height="40" as="geometry" />
        </mxCell>
        <mxCell id="94Th0ascxjRRAc_AjEBm-97" style="edgeStyle=orthogonalEdgeStyle;curved=1;rounded=0;orthogonalLoop=1;jettySize=auto;html=1;entryX=0.5;entryY=1;entryDx=0;entryDy=0;exitX=0.25;exitY=0;exitDx=0;exitDy=0;" parent="1" source="94Th0ascxjRRAc_AjEBm-121" target="94Th0ascxjRRAc_AjEBm-94" edge="1">
          <mxGeometry relative="1" as="geometry">
            <mxPoint x="350" y="765" as="sourcePoint" />
          </mxGeometry>
        </mxCell>
        <mxCell id="94Th0ascxjRRAc_AjEBm-98" style="edgeStyle=orthogonalEdgeStyle;curved=1;rounded=0;orthogonalLoop=1;jettySize=auto;html=1;exitX=0;exitY=0.25;exitDx=0;exitDy=0;entryX=1;entryY=0.5;entryDx=0;entryDy=0;" parent="1" source="94Th0ascxjRRAc_AjEBm-121" target="94Th0ascxjRRAc_AjEBm-95" edge="1">
          <mxGeometry relative="1" as="geometry">
            <mxPoint x="320" y="785" as="sourcePoint" />
          </mxGeometry>
        </mxCell>
        <mxCell id="94Th0ascxjRRAc_AjEBm-91" style="edgeStyle=orthogonalEdgeStyle;curved=1;rounded=0;orthogonalLoop=1;jettySize=auto;html=1;exitX=0.188;exitY=0;exitDx=0;exitDy=0;entryX=0.5;entryY=1;entryDx=0;entryDy=0;exitPerimeter=0;" parent="1" source="94Th0ascxjRRAc_AjEBm-122" target="94Th0ascxjRRAc_AjEBm-90" edge="1">
          <mxGeometry relative="1" as="geometry">
            <mxPoint x="928.5" y="155" as="sourcePoint" />
          </mxGeometry>
        </mxCell>
        <mxCell id="94Th0ascxjRRAc_AjEBm-93" style="edgeStyle=orthogonalEdgeStyle;curved=1;rounded=0;orthogonalLoop=1;jettySize=auto;html=1;exitX=0.577;exitY=0.028;exitDx=0;exitDy=0;entryX=0.5;entryY=1;entryDx=0;entryDy=0;exitPerimeter=0;" parent="1" source="94Th0ascxjRRAc_AjEBm-122" target="94Th0ascxjRRAc_AjEBm-92" edge="1">
          <mxGeometry relative="1" as="geometry">
            <mxPoint x="966" y="155" as="sourcePoint" />
          </mxGeometry>
        </mxCell>
        <mxCell id="94Th0ascxjRRAc_AjEBm-90" value="&lt;u&gt;teacherId&lt;/u&gt;" style="ellipse;whiteSpace=wrap;html=1;align=center;" parent="1" vertex="1">
          <mxGeometry x="756" y="35" width="100" height="40" as="geometry" />
        </mxCell>
        <mxCell id="94Th0ascxjRRAc_AjEBm-92" value="department" style="ellipse;whiteSpace=wrap;html=1;align=center;" parent="1" vertex="1">
          <mxGeometry x="861" y="25" width="100" height="40" as="geometry" />
        </mxCell>
        <mxCell id="94Th0ascxjRRAc_AjEBm-94" value="&lt;u&gt;studentId&lt;/u&gt;" style="ellipse;whiteSpace=wrap;html=1;align=center;" parent="1" vertex="1">
          <mxGeometry x="120" y="635" width="100" height="40" as="geometry" />
        </mxCell>
        <mxCell id="94Th0ascxjRRAc_AjEBm-95" value="major" style="ellipse;whiteSpace=wrap;html=1;align=center;" parent="1" vertex="1">
          <mxGeometry x="50" y="705" width="100" height="40" as="geometry" />
        </mxCell>
        <mxCell id="94Th0ascxjRRAc_AjEBm-385" style="edgeStyle=orthogonalEdgeStyle;curved=1;rounded=0;orthogonalLoop=1;jettySize=auto;html=1;exitX=0.5;exitY=0;exitDx=0;exitDy=0;entryX=0.5;entryY=1;entryDx=0;entryDy=0;fontFamily=Helvetica;fontSize=12;fontColor=default;" parent="1" source="94Th0ascxjRRAc_AjEBm-111" target="94Th0ascxjRRAc_AjEBm-117" edge="1">
          <mxGeometry relative="1" as="geometry" />
        </mxCell>
        <mxCell id="94Th0ascxjRRAc_AjEBm-386" style="edgeStyle=orthogonalEdgeStyle;curved=1;rounded=0;orthogonalLoop=1;jettySize=auto;html=1;exitX=0.75;exitY=0;exitDx=0;exitDy=0;entryX=0;entryY=1;entryDx=0;entryDy=0;fontFamily=Helvetica;fontSize=12;fontColor=default;" parent="1" source="94Th0ascxjRRAc_AjEBm-111" target="94Th0ascxjRRAc_AjEBm-118" edge="1">
          <mxGeometry relative="1" as="geometry" />
        </mxCell>
        <mxCell id="94Th0ascxjRRAc_AjEBm-387" style="edgeStyle=orthogonalEdgeStyle;curved=1;rounded=0;orthogonalLoop=1;jettySize=auto;html=1;exitX=1;exitY=0;exitDx=0;exitDy=0;entryX=0;entryY=0.5;entryDx=0;entryDy=0;fontFamily=Helvetica;fontSize=12;fontColor=default;" parent="1" source="94Th0ascxjRRAc_AjEBm-111" target="94Th0ascxjRRAc_AjEBm-119" edge="1">
          <mxGeometry relative="1" as="geometry" />
        </mxCell>
        <mxCell id="94Th0ascxjRRAc_AjEBm-388" style="edgeStyle=orthogonalEdgeStyle;curved=1;rounded=0;orthogonalLoop=1;jettySize=auto;html=1;exitX=1;exitY=0.5;exitDx=0;exitDy=0;entryX=0.5;entryY=0;entryDx=0;entryDy=0;fontFamily=Helvetica;fontSize=12;fontColor=default;" parent="1" source="94Th0ascxjRRAc_AjEBm-111" target="94Th0ascxjRRAc_AjEBm-115" edge="1">
          <mxGeometry relative="1" as="geometry" />
        </mxCell>
        <mxCell id="94Th0ascxjRRAc_AjEBm-389" style="edgeStyle=orthogonalEdgeStyle;curved=1;rounded=0;orthogonalLoop=1;jettySize=auto;html=1;exitX=1;exitY=1;exitDx=0;exitDy=0;entryX=0.5;entryY=0;entryDx=0;entryDy=0;fontFamily=Helvetica;fontSize=12;fontColor=default;" parent="1" source="94Th0ascxjRRAc_AjEBm-111" target="94Th0ascxjRRAc_AjEBm-113" edge="1">
          <mxGeometry relative="1" as="geometry" />
        </mxCell>
        <mxCell id="94Th0ascxjRRAc_AjEBm-390" style="edgeStyle=orthogonalEdgeStyle;curved=1;rounded=0;orthogonalLoop=1;jettySize=auto;html=1;exitX=0.25;exitY=1;exitDx=0;exitDy=0;entryX=1;entryY=0.5;entryDx=0;entryDy=0;fontFamily=Helvetica;fontSize=12;fontColor=default;" parent="1" source="94Th0ascxjRRAc_AjEBm-111" target="94Th0ascxjRRAc_AjEBm-426" edge="1">
          <mxGeometry relative="1" as="geometry">
            <mxPoint x="1436" y="470" as="targetPoint" />
          </mxGeometry>
        </mxCell>
        <mxCell id="94Th0ascxjRRAc_AjEBm-391" style="edgeStyle=orthogonalEdgeStyle;curved=1;rounded=0;orthogonalLoop=1;jettySize=auto;html=1;exitX=0;exitY=0.5;exitDx=0;exitDy=0;entryX=1;entryY=0.5;entryDx=0;entryDy=0;fontFamily=Helvetica;fontSize=12;fontColor=default;" parent="1" source="94Th0ascxjRRAc_AjEBm-111" target="94Th0ascxjRRAc_AjEBm-114" edge="1">
          <mxGeometry relative="1" as="geometry" />
        </mxCell>
        <mxCell id="94Th0ascxjRRAc_AjEBm-392" style="edgeStyle=orthogonalEdgeStyle;curved=1;rounded=0;orthogonalLoop=1;jettySize=auto;html=1;exitX=0.25;exitY=0;exitDx=0;exitDy=0;entryX=0.5;entryY=1;entryDx=0;entryDy=0;fontFamily=Helvetica;fontSize=12;fontColor=default;" parent="1" source="94Th0ascxjRRAc_AjEBm-111" target="94Th0ascxjRRAc_AjEBm-116" edge="1">
          <mxGeometry relative="1" as="geometry" />
        </mxCell>
        <mxCell id="94Th0ascxjRRAc_AjEBm-111" value="Course" style="rounded=1;arcSize=10;whiteSpace=wrap;html=1;align=center;" parent="1" vertex="1">
          <mxGeometry x="1441" y="365" width="100" height="40" as="geometry" />
        </mxCell>
        <mxCell id="94Th0ascxjRRAc_AjEBm-113" value="description" style="ellipse;whiteSpace=wrap;html=1;align=center;" parent="1" vertex="1">
          <mxGeometry x="1516" y="460" width="100" height="40" as="geometry" />
        </mxCell>
        <mxCell id="94Th0ascxjRRAc_AjEBm-114" value="department" style="ellipse;whiteSpace=wrap;html=1;align=center;" parent="1" vertex="1">
          <mxGeometry x="1286" y="365" width="100" height="40" as="geometry" />
        </mxCell>
        <mxCell id="94Th0ascxjRRAc_AjEBm-115" value="name" style="ellipse;whiteSpace=wrap;html=1;align=center;" parent="1" vertex="1">
          <mxGeometry x="1636" y="405" width="100" height="40" as="geometry" />
        </mxCell>
        <mxCell id="94Th0ascxjRRAc_AjEBm-116" value="semester" style="ellipse;whiteSpace=wrap;html=1;align=center;" parent="1" vertex="1">
          <mxGeometry x="1316" y="280" width="100" height="40" as="geometry" />
        </mxCell>
        <mxCell id="94Th0ascxjRRAc_AjEBm-117" value="&lt;u&gt;courseId&lt;/u&gt;" style="ellipse;whiteSpace=wrap;html=1;align=center;" parent="1" vertex="1">
          <mxGeometry x="1426" y="270" width="100" height="40" as="geometry" />
        </mxCell>
        <mxCell id="94Th0ascxjRRAc_AjEBm-118" value="code" style="ellipse;whiteSpace=wrap;html=1;align=center;" parent="1" vertex="1">
          <mxGeometry x="1536" y="280" width="100" height="40" as="geometry" />
        </mxCell>
        <mxCell id="94Th0ascxjRRAc_AjEBm-119" value="creditHours" style="ellipse;whiteSpace=wrap;html=1;align=center;" parent="1" vertex="1">
          <mxGeometry x="1616" y="325" width="100" height="40" as="geometry" />
        </mxCell>
        <mxCell id="94Th0ascxjRRAc_AjEBm-234" style="edgeStyle=orthogonalEdgeStyle;curved=1;rounded=0;orthogonalLoop=1;jettySize=auto;html=1;exitX=0;exitY=0.75;exitDx=0;exitDy=0;entryX=1;entryY=0.5;entryDx=0;entryDy=0;fontFamily=Helvetica;fontSize=12;fontColor=default;" parent="1" source="94Th0ascxjRRAc_AjEBm-121" target="94Th0ascxjRRAc_AjEBm-226" edge="1">
          <mxGeometry relative="1" as="geometry" />
        </mxCell>
        <mxCell id="94Th0ascxjRRAc_AjEBm-238" style="edgeStyle=orthogonalEdgeStyle;curved=1;rounded=0;orthogonalLoop=1;jettySize=auto;html=1;exitX=0;exitY=1;exitDx=0;exitDy=0;entryX=0.5;entryY=0;entryDx=0;entryDy=0;fontFamily=Helvetica;fontSize=12;fontColor=default;" parent="1" source="94Th0ascxjRRAc_AjEBm-121" target="94Th0ascxjRRAc_AjEBm-229" edge="1">
          <mxGeometry relative="1" as="geometry" />
        </mxCell>
        <mxCell id="94Th0ascxjRRAc_AjEBm-240" style="edgeStyle=orthogonalEdgeStyle;curved=1;rounded=0;orthogonalLoop=1;jettySize=auto;html=1;exitX=1;exitY=1;exitDx=0;exitDy=0;entryX=0;entryY=0.5;entryDx=0;entryDy=0;fontFamily=Helvetica;fontSize=12;fontColor=default;" parent="1" source="94Th0ascxjRRAc_AjEBm-121" target="94Th0ascxjRRAc_AjEBm-228" edge="1">
          <mxGeometry relative="1" as="geometry" />
        </mxCell>
        <mxCell id="94Th0ascxjRRAc_AjEBm-241" style="edgeStyle=orthogonalEdgeStyle;curved=1;rounded=0;orthogonalLoop=1;jettySize=auto;html=1;exitX=0.5;exitY=0;exitDx=0;exitDy=0;entryX=0.5;entryY=1;entryDx=0;entryDy=0;fontFamily=Helvetica;fontSize=12;fontColor=default;" parent="1" source="94Th0ascxjRRAc_AjEBm-121" target="94Th0ascxjRRAc_AjEBm-224" edge="1">
          <mxGeometry relative="1" as="geometry" />
        </mxCell>
        <mxCell id="94Th0ascxjRRAc_AjEBm-242" style="edgeStyle=orthogonalEdgeStyle;curved=1;rounded=0;orthogonalLoop=1;jettySize=auto;html=1;exitX=1;exitY=0;exitDx=0;exitDy=0;entryX=0.5;entryY=1;entryDx=0;entryDy=0;fontFamily=Helvetica;fontSize=12;fontColor=default;" parent="1" source="94Th0ascxjRRAc_AjEBm-121" target="94Th0ascxjRRAc_AjEBm-223" edge="1">
          <mxGeometry relative="1" as="geometry" />
        </mxCell>
        <mxCell id="94Th0ascxjRRAc_AjEBm-243" style="edgeStyle=orthogonalEdgeStyle;curved=1;rounded=0;orthogonalLoop=1;jettySize=auto;html=1;exitX=1;exitY=0;exitDx=0;exitDy=0;entryX=0.5;entryY=1;entryDx=0;entryDy=0;fontFamily=Helvetica;fontSize=12;fontColor=default;" parent="1" source="94Th0ascxjRRAc_AjEBm-121" target="94Th0ascxjRRAc_AjEBm-231" edge="1">
          <mxGeometry relative="1" as="geometry" />
        </mxCell>
        <mxCell id="94Th0ascxjRRAc_AjEBm-367" style="edgeStyle=orthogonalEdgeStyle;curved=1;rounded=0;orthogonalLoop=1;jettySize=auto;html=1;exitX=0.75;exitY=1;exitDx=0;exitDy=0;entryX=0;entryY=0.5;entryDx=0;entryDy=0;fontFamily=Helvetica;fontSize=12;fontColor=default;" parent="1" source="94Th0ascxjRRAc_AjEBm-121" target="94Th0ascxjRRAc_AjEBm-70" edge="1">
          <mxGeometry relative="1" as="geometry" />
        </mxCell>
        <mxCell id="94Th0ascxjRRAc_AjEBm-368" style="edgeStyle=orthogonalEdgeStyle;curved=1;rounded=0;orthogonalLoop=1;jettySize=auto;html=1;exitX=0.75;exitY=1;exitDx=0;exitDy=0;entryX=0;entryY=0.5;entryDx=0;entryDy=0;fontFamily=Helvetica;fontSize=12;fontColor=default;" parent="1" source="94Th0ascxjRRAc_AjEBm-121" target="94Th0ascxjRRAc_AjEBm-71" edge="1">
          <mxGeometry relative="1" as="geometry" />
        </mxCell>
        <mxCell id="94Th0ascxjRRAc_AjEBm-370" style="edgeStyle=orthogonalEdgeStyle;curved=1;rounded=0;orthogonalLoop=1;jettySize=auto;html=1;exitX=0.25;exitY=1;exitDx=0;exitDy=0;entryX=1;entryY=0.5;entryDx=0;entryDy=0;fontFamily=Helvetica;fontSize=12;fontColor=default;" parent="1" source="94Th0ascxjRRAc_AjEBm-121" target="94Th0ascxjRRAc_AjEBm-230" edge="1">
          <mxGeometry relative="1" as="geometry" />
        </mxCell>
        <mxCell id="94Th0ascxjRRAc_AjEBm-121" value="StudentProfileInfo" style="rounded=1;arcSize=10;whiteSpace=wrap;html=1;align=center;strokeColor=default;verticalAlign=middle;fontFamily=Helvetica;fontSize=12;fontColor=default;fillColor=default;" parent="1" vertex="1">
          <mxGeometry x="335" y="755" width="120" height="40" as="geometry" />
        </mxCell>
        <mxCell id="94Th0ascxjRRAc_AjEBm-254" style="edgeStyle=orthogonalEdgeStyle;curved=1;rounded=0;orthogonalLoop=1;jettySize=auto;html=1;exitX=0.75;exitY=0;exitDx=0;exitDy=0;entryX=0.5;entryY=1;entryDx=0;entryDy=0;fontFamily=Helvetica;fontSize=12;fontColor=default;" parent="1" source="94Th0ascxjRRAc_AjEBm-122" target="94Th0ascxjRRAc_AjEBm-251" edge="1">
          <mxGeometry relative="1" as="geometry" />
        </mxCell>
        <mxCell id="94Th0ascxjRRAc_AjEBm-255" style="edgeStyle=orthogonalEdgeStyle;curved=1;rounded=0;orthogonalLoop=1;jettySize=auto;html=1;exitX=1;exitY=0;exitDx=0;exitDy=0;entryX=0.5;entryY=1;entryDx=0;entryDy=0;fontFamily=Helvetica;fontSize=12;fontColor=default;" parent="1" source="94Th0ascxjRRAc_AjEBm-122" target="94Th0ascxjRRAc_AjEBm-250" edge="1">
          <mxGeometry relative="1" as="geometry" />
        </mxCell>
        <mxCell id="94Th0ascxjRRAc_AjEBm-256" style="edgeStyle=orthogonalEdgeStyle;curved=1;rounded=0;orthogonalLoop=1;jettySize=auto;html=1;exitX=1;exitY=0;exitDx=0;exitDy=0;entryX=0;entryY=0.5;entryDx=0;entryDy=0;fontFamily=Helvetica;fontSize=12;fontColor=default;" parent="1" source="94Th0ascxjRRAc_AjEBm-122" target="94Th0ascxjRRAc_AjEBm-249" edge="1">
          <mxGeometry relative="1" as="geometry" />
        </mxCell>
        <mxCell id="94Th0ascxjRRAc_AjEBm-258" style="edgeStyle=orthogonalEdgeStyle;curved=1;rounded=0;orthogonalLoop=1;jettySize=auto;html=1;exitX=1;exitY=0.75;exitDx=0;exitDy=0;entryX=0.5;entryY=0;entryDx=0;entryDy=0;fontFamily=Helvetica;fontSize=12;fontColor=default;" parent="1" source="94Th0ascxjRRAc_AjEBm-122" target="94Th0ascxjRRAc_AjEBm-247" edge="1">
          <mxGeometry relative="1" as="geometry" />
        </mxCell>
        <mxCell id="94Th0ascxjRRAc_AjEBm-259" style="edgeStyle=orthogonalEdgeStyle;curved=1;rounded=0;orthogonalLoop=1;jettySize=auto;html=1;exitX=1;exitY=1;exitDx=0;exitDy=0;entryX=0.5;entryY=0;entryDx=0;entryDy=0;fontFamily=Helvetica;fontSize=12;fontColor=default;" parent="1" source="94Th0ascxjRRAc_AjEBm-122" target="94Th0ascxjRRAc_AjEBm-248" edge="1">
          <mxGeometry relative="1" as="geometry" />
        </mxCell>
        <mxCell id="94Th0ascxjRRAc_AjEBm-260" style="edgeStyle=orthogonalEdgeStyle;curved=1;rounded=0;orthogonalLoop=1;jettySize=auto;html=1;exitX=0.75;exitY=1;exitDx=0;exitDy=0;entryX=0.5;entryY=0;entryDx=0;entryDy=0;fontFamily=Helvetica;fontSize=12;fontColor=default;" parent="1" source="94Th0ascxjRRAc_AjEBm-122" target="94Th0ascxjRRAc_AjEBm-253" edge="1">
          <mxGeometry relative="1" as="geometry" />
        </mxCell>
        <mxCell id="94Th0ascxjRRAc_AjEBm-261" style="edgeStyle=orthogonalEdgeStyle;curved=1;rounded=0;orthogonalLoop=1;jettySize=auto;html=1;exitX=0.25;exitY=1;exitDx=0;exitDy=0;entryX=0.5;entryY=0;entryDx=0;entryDy=0;fontFamily=Helvetica;fontSize=12;fontColor=default;" parent="1" source="94Th0ascxjRRAc_AjEBm-122" target="94Th0ascxjRRAc_AjEBm-252" edge="1">
          <mxGeometry relative="1" as="geometry" />
        </mxCell>
        <mxCell id="94Th0ascxjRRAc_AjEBm-122" value="TeachingStaffProfileInfo" style="rounded=1;arcSize=10;whiteSpace=wrap;html=1;align=center;strokeColor=default;verticalAlign=middle;fontFamily=Helvetica;fontSize=12;fontColor=default;fillColor=default;" parent="1" vertex="1">
          <mxGeometry x="856" y="177.5" width="160" height="40" as="geometry" />
        </mxCell>
        <mxCell id="94Th0ascxjRRAc_AjEBm-411" style="edgeStyle=orthogonalEdgeStyle;curved=1;rounded=0;orthogonalLoop=1;jettySize=auto;html=1;exitX=0;exitY=1;exitDx=0;exitDy=0;entryX=1;entryY=0.5;entryDx=0;entryDy=0;fontFamily=Helvetica;fontSize=12;fontColor=default;" parent="1" source="94Th0ascxjRRAc_AjEBm-123" target="94Th0ascxjRRAc_AjEBm-285" edge="1">
          <mxGeometry relative="1" as="geometry" />
        </mxCell>
        <mxCell id="94Th0ascxjRRAc_AjEBm-412" style="edgeStyle=orthogonalEdgeStyle;curved=1;rounded=0;orthogonalLoop=1;jettySize=auto;html=1;exitX=0;exitY=1;exitDx=0;exitDy=0;entryX=1;entryY=0.5;entryDx=0;entryDy=0;fontFamily=Helvetica;fontSize=12;fontColor=default;" parent="1" source="94Th0ascxjRRAc_AjEBm-123" target="94Th0ascxjRRAc_AjEBm-283" edge="1">
          <mxGeometry relative="1" as="geometry" />
        </mxCell>
        <mxCell id="94Th0ascxjRRAc_AjEBm-413" style="edgeStyle=orthogonalEdgeStyle;curved=1;rounded=0;orthogonalLoop=1;jettySize=auto;html=1;exitX=0;exitY=0;exitDx=0;exitDy=0;entryX=1;entryY=0.5;entryDx=0;entryDy=0;fontFamily=Helvetica;fontSize=12;fontColor=default;" parent="1" source="94Th0ascxjRRAc_AjEBm-123" target="94Th0ascxjRRAc_AjEBm-286" edge="1">
          <mxGeometry relative="1" as="geometry" />
        </mxCell>
        <mxCell id="94Th0ascxjRRAc_AjEBm-414" style="edgeStyle=orthogonalEdgeStyle;curved=1;rounded=0;orthogonalLoop=1;jettySize=auto;html=1;exitX=0.25;exitY=0;exitDx=0;exitDy=0;entryX=1;entryY=0.5;entryDx=0;entryDy=0;fontFamily=Helvetica;fontSize=12;fontColor=default;" parent="1" source="94Th0ascxjRRAc_AjEBm-123" target="94Th0ascxjRRAc_AjEBm-281" edge="1">
          <mxGeometry relative="1" as="geometry" />
        </mxCell>
        <mxCell id="94Th0ascxjRRAc_AjEBm-415" style="edgeStyle=orthogonalEdgeStyle;curved=1;rounded=0;orthogonalLoop=1;jettySize=auto;html=1;exitX=0.25;exitY=0;exitDx=0;exitDy=0;entryX=1;entryY=0.5;entryDx=0;entryDy=0;fontFamily=Helvetica;fontSize=12;fontColor=default;" parent="1" source="94Th0ascxjRRAc_AjEBm-123" target="94Th0ascxjRRAc_AjEBm-427" edge="1">
          <mxGeometry relative="1" as="geometry">
            <mxPoint x="1366" y="640" as="targetPoint" />
          </mxGeometry>
        </mxCell>
        <mxCell id="94Th0ascxjRRAc_AjEBm-416" style="edgeStyle=orthogonalEdgeStyle;curved=1;rounded=0;orthogonalLoop=1;jettySize=auto;html=1;exitX=0.5;exitY=0;exitDx=0;exitDy=0;entryX=1;entryY=0.5;entryDx=0;entryDy=0;fontFamily=Helvetica;fontSize=12;fontColor=default;" parent="1" source="94Th0ascxjRRAc_AjEBm-123" target="94Th0ascxjRRAc_AjEBm-279" edge="1">
          <mxGeometry relative="1" as="geometry" />
        </mxCell>
        <mxCell id="94Th0ascxjRRAc_AjEBm-417" style="edgeStyle=orthogonalEdgeStyle;curved=1;rounded=0;orthogonalLoop=1;jettySize=auto;html=1;exitX=0.5;exitY=0;exitDx=0;exitDy=0;entryX=0;entryY=0.5;entryDx=0;entryDy=0;fontFamily=Helvetica;fontSize=12;fontColor=default;" parent="1" source="94Th0ascxjRRAc_AjEBm-123" target="94Th0ascxjRRAc_AjEBm-153" edge="1">
          <mxGeometry relative="1" as="geometry" />
        </mxCell>
        <mxCell id="94Th0ascxjRRAc_AjEBm-418" style="edgeStyle=orthogonalEdgeStyle;curved=1;rounded=0;orthogonalLoop=1;jettySize=auto;html=1;exitX=0.75;exitY=0;exitDx=0;exitDy=0;entryX=0;entryY=0.5;entryDx=0;entryDy=0;fontFamily=Helvetica;fontSize=12;fontColor=default;" parent="1" source="94Th0ascxjRRAc_AjEBm-123" target="94Th0ascxjRRAc_AjEBm-151" edge="1">
          <mxGeometry relative="1" as="geometry" />
        </mxCell>
        <mxCell id="94Th0ascxjRRAc_AjEBm-419" style="edgeStyle=orthogonalEdgeStyle;curved=1;rounded=0;orthogonalLoop=1;jettySize=auto;html=1;exitX=0.75;exitY=0;exitDx=0;exitDy=0;entryX=0;entryY=0.5;entryDx=0;entryDy=0;fontFamily=Helvetica;fontSize=12;fontColor=default;" parent="1" source="94Th0ascxjRRAc_AjEBm-123" target="94Th0ascxjRRAc_AjEBm-280" edge="1">
          <mxGeometry relative="1" as="geometry" />
        </mxCell>
        <mxCell id="94Th0ascxjRRAc_AjEBm-420" style="edgeStyle=orthogonalEdgeStyle;curved=1;rounded=0;orthogonalLoop=1;jettySize=auto;html=1;exitX=1;exitY=0;exitDx=0;exitDy=0;entryX=0;entryY=0.5;entryDx=0;entryDy=0;fontFamily=Helvetica;fontSize=12;fontColor=default;" parent="1" source="94Th0ascxjRRAc_AjEBm-123" target="94Th0ascxjRRAc_AjEBm-284" edge="1">
          <mxGeometry relative="1" as="geometry" />
        </mxCell>
        <mxCell id="94Th0ascxjRRAc_AjEBm-421" style="edgeStyle=orthogonalEdgeStyle;curved=1;rounded=0;orthogonalLoop=1;jettySize=auto;html=1;exitX=1;exitY=1;exitDx=0;exitDy=0;entryX=0;entryY=0.5;entryDx=0;entryDy=0;fontFamily=Helvetica;fontSize=12;fontColor=default;" parent="1" source="94Th0ascxjRRAc_AjEBm-123" target="94Th0ascxjRRAc_AjEBm-126" edge="1">
          <mxGeometry relative="1" as="geometry" />
        </mxCell>
        <mxCell id="94Th0ascxjRRAc_AjEBm-423" style="edgeStyle=orthogonalEdgeStyle;curved=1;rounded=0;orthogonalLoop=1;jettySize=auto;html=1;exitX=1;exitY=1;exitDx=0;exitDy=0;entryX=0;entryY=0.5;entryDx=0;entryDy=0;fontFamily=Helvetica;fontSize=12;fontColor=default;" parent="1" source="94Th0ascxjRRAc_AjEBm-123" target="94Th0ascxjRRAc_AjEBm-128" edge="1">
          <mxGeometry relative="1" as="geometry" />
        </mxCell>
        <mxCell id="94Th0ascxjRRAc_AjEBm-123" value="SemesterCourse" style="rounded=1;arcSize=10;whiteSpace=wrap;html=1;align=center;" parent="1" vertex="1">
          <mxGeometry x="1441" y="790" width="100" height="85" as="geometry" />
        </mxCell>
        <mxCell id="94Th0ascxjRRAc_AjEBm-424" style="edgeStyle=orthogonalEdgeStyle;curved=1;rounded=0;orthogonalLoop=1;jettySize=auto;html=1;exitX=1;exitY=0.5;exitDx=0;exitDy=0;entryX=0;entryY=0.5;entryDx=0;entryDy=0;fontFamily=Helvetica;fontSize=12;fontColor=default;" parent="1" source="94Th0ascxjRRAc_AjEBm-126" target="94Th0ascxjRRAc_AjEBm-158" edge="1">
          <mxGeometry relative="1" as="geometry" />
        </mxCell>
        <mxCell id="94Th0ascxjRRAc_AjEBm-425" style="edgeStyle=orthogonalEdgeStyle;curved=1;rounded=0;orthogonalLoop=1;jettySize=auto;html=1;exitX=1;exitY=0.5;exitDx=0;exitDy=0;entryX=0;entryY=0.5;entryDx=0;entryDy=0;fontFamily=Helvetica;fontSize=12;fontColor=default;" parent="1" source="94Th0ascxjRRAc_AjEBm-126" target="94Th0ascxjRRAc_AjEBm-157" edge="1">
          <mxGeometry relative="1" as="geometry" />
        </mxCell>
        <mxCell id="94Th0ascxjRRAc_AjEBm-126" value="grades" style="ellipse;whiteSpace=wrap;html=1;align=center;" parent="1" vertex="1">
          <mxGeometry x="1666" y="875" width="100" height="40" as="geometry" />
        </mxCell>
        <mxCell id="94Th0ascxjRRAc_AjEBm-128" value="maxSeats" style="ellipse;whiteSpace=wrap;html=1;align=center;" parent="1" vertex="1">
          <mxGeometry x="1636" y="940" width="100" height="40" as="geometry" />
        </mxCell>
        <mxCell id="94Th0ascxjRRAc_AjEBm-397" style="edgeStyle=orthogonalEdgeStyle;curved=1;rounded=0;orthogonalLoop=1;jettySize=auto;html=1;exitX=0.5;exitY=0;exitDx=0;exitDy=0;entryX=0.5;entryY=1;entryDx=0;entryDy=0;fontFamily=Helvetica;fontSize=12;fontColor=default;" parent="1" source="94Th0ascxjRRAc_AjEBm-132" target="94Th0ascxjRRAc_AjEBm-138" edge="1">
          <mxGeometry relative="1" as="geometry" />
        </mxCell>
        <mxCell id="94Th0ascxjRRAc_AjEBm-398" style="edgeStyle=orthogonalEdgeStyle;curved=1;rounded=0;orthogonalLoop=1;jettySize=auto;html=1;exitX=0.75;exitY=0;exitDx=0;exitDy=0;entryX=0.5;entryY=1;entryDx=0;entryDy=0;fontFamily=Helvetica;fontSize=12;fontColor=default;" parent="1" source="94Th0ascxjRRAc_AjEBm-132" target="94Th0ascxjRRAc_AjEBm-139" edge="1">
          <mxGeometry relative="1" as="geometry" />
        </mxCell>
        <mxCell id="94Th0ascxjRRAc_AjEBm-399" style="edgeStyle=orthogonalEdgeStyle;curved=1;rounded=0;orthogonalLoop=1;jettySize=auto;html=1;exitX=0.25;exitY=0;exitDx=0;exitDy=0;entryX=0.5;entryY=1;entryDx=0;entryDy=0;fontFamily=Helvetica;fontSize=12;fontColor=default;" parent="1" source="94Th0ascxjRRAc_AjEBm-132" target="94Th0ascxjRRAc_AjEBm-137" edge="1">
          <mxGeometry relative="1" as="geometry" />
        </mxCell>
        <mxCell id="94Th0ascxjRRAc_AjEBm-132" value="Location" style="rounded=1;arcSize=10;whiteSpace=wrap;html=1;align=center;" parent="1" vertex="1">
          <mxGeometry x="2288.5" y="367.5" width="100" height="40" as="geometry" />
        </mxCell>
        <mxCell id="94Th0ascxjRRAc_AjEBm-137" value="capacity" style="ellipse;whiteSpace=wrap;html=1;align=center;" parent="1" vertex="1">
          <mxGeometry x="2136" y="210" width="100" height="40" as="geometry" />
        </mxCell>
        <mxCell id="94Th0ascxjRRAc_AjEBm-138" value="room" style="ellipse;whiteSpace=wrap;html=1;align=center;" parent="1" vertex="1">
          <mxGeometry x="2288.5" y="215" width="100" height="40" as="geometry" />
        </mxCell>
        <mxCell id="94Th0ascxjRRAc_AjEBm-139" value="building" style="ellipse;whiteSpace=wrap;html=1;align=center;" parent="1" vertex="1">
          <mxGeometry x="2450" y="217.5" width="100" height="40" as="geometry" />
        </mxCell>
        <mxCell id="94Th0ascxjRRAc_AjEBm-141" value="grade" style="ellipse;whiteSpace=wrap;html=1;align=center;" parent="1" vertex="1">
          <mxGeometry x="1876" y="1450" width="100" height="40" as="geometry" />
        </mxCell>
        <mxCell id="94Th0ascxjRRAc_AjEBm-371" style="edgeStyle=orthogonalEdgeStyle;curved=1;rounded=0;orthogonalLoop=1;jettySize=auto;html=1;exitX=0.5;exitY=1;exitDx=0;exitDy=0;entryX=0.5;entryY=0;entryDx=0;entryDy=0;fontFamily=Helvetica;fontSize=12;fontColor=default;" parent="1" source="94Th0ascxjRRAc_AjEBm-143" target="94Th0ascxjRRAc_AjEBm-141" edge="1">
          <mxGeometry relative="1" as="geometry" />
        </mxCell>
        <mxCell id="94Th0ascxjRRAc_AjEBm-372" style="edgeStyle=orthogonalEdgeStyle;curved=1;rounded=0;orthogonalLoop=1;jettySize=auto;html=1;exitX=0.5;exitY=1;exitDx=0;exitDy=0;entryX=0.5;entryY=0;entryDx=0;entryDy=0;fontFamily=Helvetica;fontSize=12;fontColor=default;" parent="1" source="94Th0ascxjRRAc_AjEBm-143" target="94Th0ascxjRRAc_AjEBm-149" edge="1">
          <mxGeometry relative="1" as="geometry" />
        </mxCell>
        <mxCell id="94Th0ascxjRRAc_AjEBm-143" value="AssignmentAnswer" style="rounded=1;arcSize=10;whiteSpace=wrap;html=1;align=center;" parent="1" vertex="1">
          <mxGeometry x="1936" y="1360" width="150" height="40" as="geometry" />
        </mxCell>
        <mxCell id="94Th0ascxjRRAc_AjEBm-149" value="answerPaths" style="ellipse;shape=doubleEllipse;margin=3;whiteSpace=wrap;html=1;align=center;strokeColor=default;verticalAlign=middle;fontFamily=Helvetica;fontSize=12;fontColor=default;fillColor=default;" parent="1" vertex="1">
          <mxGeometry x="2036" y="1450" width="100" height="40" as="geometry" />
        </mxCell>
        <mxCell id="94Th0ascxjRRAc_AjEBm-151" value="members" style="ellipse;shape=doubleEllipse;margin=3;whiteSpace=wrap;html=1;align=center;strokeColor=default;verticalAlign=middle;fontFamily=Helvetica;fontSize=12;fontColor=default;fillColor=default;" parent="1" vertex="1">
          <mxGeometry x="1596" y="630" width="100" height="40" as="geometry" />
        </mxCell>
        <mxCell id="94Th0ascxjRRAc_AjEBm-153" value="materialsPaths" style="ellipse;shape=doubleEllipse;margin=3;whiteSpace=wrap;html=1;align=center;strokeColor=default;verticalAlign=middle;fontFamily=Helvetica;fontSize=12;fontColor=default;fillColor=default;" parent="1" vertex="1">
          <mxGeometry x="1551" y="580" width="100" height="40" as="geometry" />
        </mxCell>
        <mxCell id="94Th0ascxjRRAc_AjEBm-157" value="theGrade" style="ellipse;shape=doubleEllipse;margin=3;whiteSpace=wrap;html=1;align=center;strokeColor=default;verticalAlign=middle;fontFamily=Helvetica;fontSize=12;fontColor=default;fillColor=default;" parent="1" vertex="1">
          <mxGeometry x="1836" y="930" width="100" height="40" as="geometry" />
        </mxCell>
        <mxCell id="94Th0ascxjRRAc_AjEBm-158" value="ofWhat" style="ellipse;shape=doubleEllipse;margin=3;whiteSpace=wrap;html=1;align=center;strokeColor=default;verticalAlign=middle;fontFamily=Helvetica;fontSize=12;fontColor=default;fillColor=default;" parent="1" vertex="1">
          <mxGeometry x="1836" y="865" width="100" height="40" as="geometry" />
        </mxCell>
        <mxCell id="94Th0ascxjRRAc_AjEBm-400" style="edgeStyle=orthogonalEdgeStyle;curved=1;rounded=0;orthogonalLoop=1;jettySize=auto;html=1;exitX=0.75;exitY=0;exitDx=0;exitDy=0;entryX=0;entryY=0.5;entryDx=0;entryDy=0;fontFamily=Helvetica;fontSize=12;fontColor=default;" parent="1" source="94Th0ascxjRRAc_AjEBm-160" target="94Th0ascxjRRAc_AjEBm-167" edge="1">
          <mxGeometry relative="1" as="geometry" />
        </mxCell>
        <mxCell id="94Th0ascxjRRAc_AjEBm-401" style="edgeStyle=orthogonalEdgeStyle;curved=1;rounded=0;orthogonalLoop=1;jettySize=auto;html=1;exitX=1;exitY=0.5;exitDx=0;exitDy=0;entryX=0.5;entryY=0;entryDx=0;entryDy=0;fontFamily=Helvetica;fontSize=12;fontColor=default;" parent="1" source="94Th0ascxjRRAc_AjEBm-160" target="94Th0ascxjRRAc_AjEBm-162" edge="1">
          <mxGeometry relative="1" as="geometry" />
        </mxCell>
        <mxCell id="94Th0ascxjRRAc_AjEBm-402" style="edgeStyle=orthogonalEdgeStyle;curved=1;rounded=0;orthogonalLoop=1;jettySize=auto;html=1;exitX=0.75;exitY=1;exitDx=0;exitDy=0;entryX=0.5;entryY=0;entryDx=0;entryDy=0;fontFamily=Helvetica;fontSize=12;fontColor=default;" parent="1" source="94Th0ascxjRRAc_AjEBm-160" target="94Th0ascxjRRAc_AjEBm-161" edge="1">
          <mxGeometry relative="1" as="geometry" />
        </mxCell>
        <mxCell id="94Th0ascxjRRAc_AjEBm-403" style="edgeStyle=orthogonalEdgeStyle;curved=1;rounded=0;orthogonalLoop=1;jettySize=auto;html=1;exitX=0.25;exitY=1;exitDx=0;exitDy=0;entryX=0.5;entryY=0;entryDx=0;entryDy=0;fontFamily=Helvetica;fontSize=12;fontColor=default;" parent="1" source="94Th0ascxjRRAc_AjEBm-160" target="94Th0ascxjRRAc_AjEBm-165" edge="1">
          <mxGeometry relative="1" as="geometry" />
        </mxCell>
        <mxCell id="94Th0ascxjRRAc_AjEBm-160" value="Session" style="rounded=1;arcSize=10;whiteSpace=wrap;html=1;align=center;" parent="1" vertex="1">
          <mxGeometry x="2288.5" y="825" width="100" height="40" as="geometry" />
        </mxCell>
        <mxCell id="94Th0ascxjRRAc_AjEBm-161" value="weekDay" style="ellipse;whiteSpace=wrap;html=1;align=center;" parent="1" vertex="1">
          <mxGeometry x="2363.5" y="917.5" width="100" height="40" as="geometry" />
        </mxCell>
        <mxCell id="94Th0ascxjRRAc_AjEBm-162" value="period" style="ellipse;whiteSpace=wrap;html=1;align=center;" parent="1" vertex="1">
          <mxGeometry x="2433.5" y="877.5" width="100" height="40" as="geometry" />
        </mxCell>
        <mxCell id="94Th0ascxjRRAc_AjEBm-165" value="type" style="ellipse;whiteSpace=wrap;html=1;align=center;" parent="1" vertex="1">
          <mxGeometry x="2213.5" y="917.5" width="100" height="40" as="geometry" />
        </mxCell>
        <mxCell id="94Th0ascxjRRAc_AjEBm-167" value="teacher" style="ellipse;whiteSpace=wrap;html=1;align=center;" parent="1" vertex="1">
          <mxGeometry x="2423.5" y="767.5" width="100" height="40" as="geometry" />
        </mxCell>
        <mxCell id="94Th0ascxjRRAc_AjEBm-373" style="edgeStyle=orthogonalEdgeStyle;curved=1;rounded=0;orthogonalLoop=1;jettySize=auto;html=1;exitX=0.5;exitY=1;exitDx=0;exitDy=0;entryX=0.5;entryY=0;entryDx=0;entryDy=0;fontFamily=Helvetica;fontSize=12;fontColor=default;" parent="1" source="94Th0ascxjRRAc_AjEBm-170" target="94Th0ascxjRRAc_AjEBm-172" edge="1">
          <mxGeometry relative="1" as="geometry" />
        </mxCell>
        <mxCell id="94Th0ascxjRRAc_AjEBm-374" style="edgeStyle=orthogonalEdgeStyle;curved=1;rounded=0;orthogonalLoop=1;jettySize=auto;html=1;exitX=0.5;exitY=1;exitDx=0;exitDy=0;entryX=0.5;entryY=0;entryDx=0;entryDy=0;fontFamily=Helvetica;fontSize=12;fontColor=default;" parent="1" source="94Th0ascxjRRAc_AjEBm-170" target="94Th0ascxjRRAc_AjEBm-173" edge="1">
          <mxGeometry relative="1" as="geometry" />
        </mxCell>
        <mxCell id="94Th0ascxjRRAc_AjEBm-170" value="Assignment" style="rounded=1;arcSize=10;whiteSpace=wrap;html=1;align=center;" parent="1" vertex="1">
          <mxGeometry x="1416" y="1360" width="150" height="40" as="geometry" />
        </mxCell>
        <mxCell id="94Th0ascxjRRAc_AjEBm-172" value="dueDate" style="ellipse;whiteSpace=wrap;html=1;align=center;" parent="1" vertex="1">
          <mxGeometry x="1331" y="1450" width="100" height="40" as="geometry" />
        </mxCell>
        <mxCell id="94Th0ascxjRRAc_AjEBm-173" value="materialPaths" style="ellipse;shape=doubleEllipse;margin=3;whiteSpace=wrap;html=1;align=center;strokeColor=default;verticalAlign=middle;fontFamily=Helvetica;fontSize=12;fontColor=default;fillColor=default;" parent="1" vertex="1">
          <mxGeometry x="1576" y="1450" width="100" height="40" as="geometry" />
        </mxCell>
        <mxCell id="94Th0ascxjRRAc_AjEBm-174" value="description" style="ellipse;whiteSpace=wrap;html=1;align=center;" parent="1" vertex="1">
          <mxGeometry x="1236" y="1160" width="100" height="40" as="geometry" />
        </mxCell>
        <mxCell id="94Th0ascxjRRAc_AjEBm-406" style="edgeStyle=orthogonalEdgeStyle;curved=1;rounded=0;orthogonalLoop=1;jettySize=auto;html=1;exitX=0.5;exitY=1;exitDx=0;exitDy=0;entryX=0.5;entryY=0;entryDx=0;entryDy=0;fontFamily=Helvetica;fontSize=12;fontColor=default;" parent="1" source="94Th0ascxjRRAc_AjEBm-175" target="94Th0ascxjRRAc_AjEBm-179" edge="1">
          <mxGeometry relative="1" as="geometry" />
        </mxCell>
        <mxCell id="94Th0ascxjRRAc_AjEBm-407" style="edgeStyle=orthogonalEdgeStyle;curved=1;rounded=0;orthogonalLoop=1;jettySize=auto;html=1;exitX=0.5;exitY=1;exitDx=0;exitDy=0;entryX=0.5;entryY=0;entryDx=0;entryDy=0;fontFamily=Helvetica;fontSize=12;fontColor=default;" parent="1" source="94Th0ascxjRRAc_AjEBm-175" target="94Th0ascxjRRAc_AjEBm-176" edge="1">
          <mxGeometry relative="1" as="geometry" />
        </mxCell>
        <mxCell id="94Th0ascxjRRAc_AjEBm-408" style="edgeStyle=orthogonalEdgeStyle;curved=1;rounded=0;orthogonalLoop=1;jettySize=auto;html=1;exitX=0.5;exitY=1;exitDx=0;exitDy=0;entryX=0.5;entryY=0;entryDx=0;entryDy=0;fontFamily=Helvetica;fontSize=12;fontColor=default;" parent="1" source="94Th0ascxjRRAc_AjEBm-175" target="94Th0ascxjRRAc_AjEBm-174" edge="1">
          <mxGeometry relative="1" as="geometry" />
        </mxCell>
        <mxCell id="94Th0ascxjRRAc_AjEBm-175" value="Announcement" style="rounded=1;arcSize=10;whiteSpace=wrap;html=1;align=center;" parent="1" vertex="1">
          <mxGeometry x="1076" y="1050" width="150" height="40" as="geometry" />
        </mxCell>
        <mxCell id="94Th0ascxjRRAc_AjEBm-176" value="name" style="ellipse;whiteSpace=wrap;html=1;align=center;" parent="1" vertex="1">
          <mxGeometry x="1096" y="1157.5" width="110" height="45" as="geometry" />
        </mxCell>
        <mxCell id="94Th0ascxjRRAc_AjEBm-179" value="&lt;u&gt;announcementId&lt;/u&gt;" style="ellipse;whiteSpace=wrap;html=1;align=center;" parent="1" vertex="1">
          <mxGeometry x="956" y="1160" width="100" height="40" as="geometry" />
        </mxCell>
        <mxCell id="94Th0ascxjRRAc_AjEBm-404" style="edgeStyle=orthogonalEdgeStyle;curved=1;rounded=0;orthogonalLoop=1;jettySize=auto;html=1;exitX=0.5;exitY=1;exitDx=0;exitDy=0;entryX=0.5;entryY=0;entryDx=0;entryDy=0;fontFamily=Helvetica;fontSize=12;fontColor=default;" parent="1" source="94Th0ascxjRRAc_AjEBm-181" target="94Th0ascxjRRAc_AjEBm-184" edge="1">
          <mxGeometry relative="1" as="geometry" />
        </mxCell>
        <mxCell id="94Th0ascxjRRAc_AjEBm-405" style="edgeStyle=orthogonalEdgeStyle;curved=1;rounded=0;orthogonalLoop=1;jettySize=auto;html=1;exitX=0.5;exitY=1;exitDx=0;exitDy=0;entryX=0.5;entryY=0;entryDx=0;entryDy=0;fontFamily=Helvetica;fontSize=12;fontColor=default;" parent="1" source="94Th0ascxjRRAc_AjEBm-181" target="94Th0ascxjRRAc_AjEBm-182" edge="1">
          <mxGeometry relative="1" as="geometry" />
        </mxCell>
        <mxCell id="94Th0ascxjRRAc_AjEBm-181" value="Feedback" style="rounded=1;arcSize=10;whiteSpace=wrap;html=1;align=center;" parent="1" vertex="1">
          <mxGeometry x="1756" y="1050" width="150" height="40" as="geometry" />
        </mxCell>
        <mxCell id="94Th0ascxjRRAc_AjEBm-182" value="content" style="ellipse;whiteSpace=wrap;html=1;align=center;" parent="1" vertex="1">
          <mxGeometry x="1871" y="1155" width="110" height="45" as="geometry" />
        </mxCell>
        <mxCell id="94Th0ascxjRRAc_AjEBm-184" value="&lt;u&gt;feedbackId&lt;/u&gt;" style="ellipse;whiteSpace=wrap;html=1;align=center;" parent="1" vertex="1">
          <mxGeometry x="1696" y="1157.5" width="100" height="40" as="geometry" />
        </mxCell>
        <mxCell id="94Th0ascxjRRAc_AjEBm-409" style="edgeStyle=orthogonalEdgeStyle;curved=1;rounded=0;orthogonalLoop=1;jettySize=auto;html=1;exitX=0.5;exitY=1;exitDx=0;exitDy=0;entryX=0.5;entryY=0;entryDx=0;entryDy=0;fontFamily=Helvetica;fontSize=12;fontColor=default;" parent="1" source="94Th0ascxjRRAc_AjEBm-185" target="94Th0ascxjRRAc_AjEBm-186" edge="1">
          <mxGeometry relative="1" as="geometry" />
        </mxCell>
        <mxCell id="94Th0ascxjRRAc_AjEBm-410" style="edgeStyle=orthogonalEdgeStyle;curved=1;rounded=0;orthogonalLoop=1;jettySize=auto;html=1;exitX=0.5;exitY=1;exitDx=0;exitDy=0;entryX=0.5;entryY=0;entryDx=0;entryDy=0;fontFamily=Helvetica;fontSize=12;fontColor=default;" parent="1" source="94Th0ascxjRRAc_AjEBm-185" target="94Th0ascxjRRAc_AjEBm-188" edge="1">
          <mxGeometry relative="1" as="geometry" />
        </mxCell>
        <mxCell id="94Th0ascxjRRAc_AjEBm-185" value="Registeration" style="rounded=1;arcSize=10;whiteSpace=wrap;html=1;align=center;" parent="1" vertex="1">
          <mxGeometry x="911" y="835" width="150" height="40" as="geometry" />
        </mxCell>
        <mxCell id="94Th0ascxjRRAc_AjEBm-186" value="paymentDeadline" style="ellipse;whiteSpace=wrap;html=1;align=center;" parent="1" vertex="1">
          <mxGeometry x="876" y="930" width="120" height="50" as="geometry" />
        </mxCell>
        <mxCell id="94Th0ascxjRRAc_AjEBm-188" value="paymentFees" style="ellipse;whiteSpace=wrap;html=1;align=center;" parent="1" vertex="1">
          <mxGeometry x="1016" y="930" width="100" height="40" as="geometry" />
        </mxCell>
        <mxCell id="94Th0ascxjRRAc_AjEBm-393" style="edgeStyle=orthogonalEdgeStyle;curved=1;rounded=0;orthogonalLoop=1;jettySize=auto;html=1;exitX=0.5;exitY=0;exitDx=0;exitDy=0;entryX=0.5;entryY=1;entryDx=0;entryDy=0;fontFamily=Helvetica;fontSize=12;fontColor=default;" parent="1" source="94Th0ascxjRRAc_AjEBm-195" target="94Th0ascxjRRAc_AjEBm-196" edge="1">
          <mxGeometry relative="1" as="geometry" />
        </mxCell>
        <mxCell id="94Th0ascxjRRAc_AjEBm-394" style="edgeStyle=orthogonalEdgeStyle;curved=1;rounded=0;orthogonalLoop=1;jettySize=auto;html=1;exitX=0.75;exitY=0;exitDx=0;exitDy=0;entryX=0.5;entryY=1;entryDx=0;entryDy=0;fontFamily=Helvetica;fontSize=12;fontColor=default;" parent="1" source="94Th0ascxjRRAc_AjEBm-195" target="94Th0ascxjRRAc_AjEBm-201" edge="1">
          <mxGeometry relative="1" as="geometry" />
        </mxCell>
        <mxCell id="94Th0ascxjRRAc_AjEBm-396" style="edgeStyle=orthogonalEdgeStyle;curved=1;rounded=0;orthogonalLoop=1;jettySize=auto;html=1;exitX=0;exitY=0.25;exitDx=0;exitDy=0;entryX=0.5;entryY=1;entryDx=0;entryDy=0;fontFamily=Helvetica;fontSize=12;fontColor=default;" parent="1" source="94Th0ascxjRRAc_AjEBm-195" target="94Th0ascxjRRAc_AjEBm-199" edge="1">
          <mxGeometry relative="1" as="geometry" />
        </mxCell>
        <mxCell id="94Th0ascxjRRAc_AjEBm-195" value="Exam" style="rounded=1;arcSize=10;whiteSpace=wrap;html=1;align=center;" parent="1" vertex="1">
          <mxGeometry x="1883.5" y="367.5" width="150" height="40" as="geometry" />
        </mxCell>
        <mxCell id="94Th0ascxjRRAc_AjEBm-196" value="studentId" style="ellipse;whiteSpace=wrap;html=1;align=center;" parent="1" vertex="1">
          <mxGeometry x="1873.5" y="240" width="120" height="50" as="geometry" />
        </mxCell>
        <mxCell id="94Th0ascxjRRAc_AjEBm-199" value="period" style="ellipse;whiteSpace=wrap;html=1;align=center;" parent="1" vertex="1">
          <mxGeometry x="1713.5" y="285" width="120" height="50" as="geometry" />
        </mxCell>
        <mxCell id="94Th0ascxjRRAc_AjEBm-201" value="seatNumber" style="ellipse;whiteSpace=wrap;html=1;align=center;" parent="1" vertex="1">
          <mxGeometry x="2018.5" y="270" width="120" height="50" as="geometry" />
        </mxCell>
        <mxCell id="94Th0ascxjRRAc_AjEBm-217" value="HAS" style="shape=rhombus;perimeter=rhombusPerimeter;whiteSpace=wrap;html=1;align=center;strokeColor=default;verticalAlign=middle;fontFamily=Helvetica;fontSize=12;fontColor=default;fillColor=default;" parent="1" vertex="1">
          <mxGeometry x="335" y="985" width="120" height="60" as="geometry" />
        </mxCell>
        <mxCell id="94Th0ascxjRRAc_AjEBm-218" value="" style="endArrow=none;html=1;rounded=0;fontFamily=Helvetica;fontSize=12;fontColor=default;curved=1;entryX=0.5;entryY=1;entryDx=0;entryDy=0;exitX=0.5;exitY=0;exitDx=0;exitDy=0;" parent="1" source="94Th0ascxjRRAc_AjEBm-24" target="94Th0ascxjRRAc_AjEBm-217" edge="1">
          <mxGeometry relative="1" as="geometry">
            <mxPoint x="500" y="940" as="sourcePoint" />
            <mxPoint x="660" y="940" as="targetPoint" />
          </mxGeometry>
        </mxCell>
        <mxCell id="94Th0ascxjRRAc_AjEBm-221" value="N" style="edgeLabel;html=1;align=center;verticalAlign=middle;resizable=0;points=[];fontSize=12;fontFamily=Helvetica;fontColor=default;" parent="94Th0ascxjRRAc_AjEBm-218" vertex="1" connectable="0">
          <mxGeometry x="0.0593" y="-1" relative="1" as="geometry">
            <mxPoint as="offset" />
          </mxGeometry>
        </mxCell>
        <mxCell id="94Th0ascxjRRAc_AjEBm-219" value="" style="endArrow=none;html=1;rounded=0;fontFamily=Helvetica;fontSize=12;fontColor=default;curved=1;entryX=0.5;entryY=0;entryDx=0;entryDy=0;exitX=0.5;exitY=1;exitDx=0;exitDy=0;" parent="1" source="94Th0ascxjRRAc_AjEBm-121" target="94Th0ascxjRRAc_AjEBm-217" edge="1">
          <mxGeometry relative="1" as="geometry">
            <mxPoint x="460" y="790" as="sourcePoint" />
            <mxPoint x="670" y="940" as="targetPoint" />
          </mxGeometry>
        </mxCell>
        <mxCell id="94Th0ascxjRRAc_AjEBm-222" value="1" style="edgeLabel;html=1;align=center;verticalAlign=middle;resizable=0;points=[];fontSize=12;fontFamily=Helvetica;fontColor=default;" parent="94Th0ascxjRRAc_AjEBm-219" vertex="1" connectable="0">
          <mxGeometry x="0.024" y="-1" relative="1" as="geometry">
            <mxPoint as="offset" />
          </mxGeometry>
        </mxCell>
        <mxCell id="94Th0ascxjRRAc_AjEBm-223" value="firstName" style="ellipse;whiteSpace=wrap;html=1;align=center;" parent="1" vertex="1">
          <mxGeometry x="460" y="550" width="100" height="40" as="geometry" />
        </mxCell>
        <mxCell id="94Th0ascxjRRAc_AjEBm-224" value="userId" style="ellipse;whiteSpace=wrap;html=1;align=center;fontStyle=4;" parent="1" vertex="1">
          <mxGeometry x="290" y="540" width="100" height="40" as="geometry" />
        </mxCell>
        <mxCell id="94Th0ascxjRRAc_AjEBm-225" value="data" style="ellipse;shape=doubleEllipse;margin=3;whiteSpace=wrap;html=1;align=center;" parent="1" vertex="1">
          <mxGeometry x="40" y="890" width="100" height="40" as="geometry" />
        </mxCell>
        <mxCell id="94Th0ascxjRRAc_AjEBm-235" style="edgeStyle=orthogonalEdgeStyle;curved=1;rounded=0;orthogonalLoop=1;jettySize=auto;html=1;exitX=0;exitY=0.5;exitDx=0;exitDy=0;entryX=1;entryY=0.5;entryDx=0;entryDy=0;fontFamily=Helvetica;fontSize=12;fontColor=default;" parent="1" source="94Th0ascxjRRAc_AjEBm-226" target="94Th0ascxjRRAc_AjEBm-227" edge="1">
          <mxGeometry relative="1" as="geometry" />
        </mxCell>
        <mxCell id="94Th0ascxjRRAc_AjEBm-236" style="edgeStyle=orthogonalEdgeStyle;curved=1;rounded=0;orthogonalLoop=1;jettySize=auto;html=1;exitX=0;exitY=1;exitDx=0;exitDy=0;entryX=1;entryY=0;entryDx=0;entryDy=0;fontFamily=Helvetica;fontSize=12;fontColor=default;" parent="1" source="94Th0ascxjRRAc_AjEBm-226" target="94Th0ascxjRRAc_AjEBm-225" edge="1">
          <mxGeometry relative="1" as="geometry" />
        </mxCell>
        <mxCell id="94Th0ascxjRRAc_AjEBm-226" value="contactData" style="ellipse;whiteSpace=wrap;html=1;align=center;" parent="1" vertex="1">
          <mxGeometry x="140" y="795" width="100" height="40" as="geometry" />
        </mxCell>
        <mxCell id="94Th0ascxjRRAc_AjEBm-227" value="ofWhat" style="ellipse;shape=doubleEllipse;margin=3;whiteSpace=wrap;html=1;align=center;" parent="1" vertex="1">
          <mxGeometry y="795" width="100" height="40" as="geometry" />
        </mxCell>
        <mxCell id="94Th0ascxjRRAc_AjEBm-228" value="permission" style="ellipse;whiteSpace=wrap;html=1;align=center;" parent="1" vertex="1">
          <mxGeometry x="610" y="810" width="100" height="40" as="geometry" />
        </mxCell>
        <mxCell id="94Th0ascxjRRAc_AjEBm-229" value="profilePictureURL" style="ellipse;whiteSpace=wrap;html=1;align=center;" parent="1" vertex="1">
          <mxGeometry x="170" y="880" width="110" height="40" as="geometry" />
        </mxCell>
        <mxCell id="94Th0ascxjRRAc_AjEBm-230" value="biography" style="ellipse;whiteSpace=wrap;html=1;align=center;" parent="1" vertex="1">
          <mxGeometry x="180" y="945" width="100" height="40" as="geometry" />
        </mxCell>
        <mxCell id="94Th0ascxjRRAc_AjEBm-231" value="lastName" style="ellipse;whiteSpace=wrap;html=1;align=center;" parent="1" vertex="1">
          <mxGeometry x="570" y="595" width="100" height="40" as="geometry" />
        </mxCell>
        <mxCell id="94Th0ascxjRRAc_AjEBm-245" style="edgeStyle=orthogonalEdgeStyle;curved=1;rounded=0;orthogonalLoop=1;jettySize=auto;html=1;exitX=0.75;exitY=0;exitDx=0;exitDy=0;entryX=0.5;entryY=1;entryDx=0;entryDy=0;fontFamily=Helvetica;fontSize=12;fontColor=default;" parent="1" source="94Th0ascxjRRAc_AjEBm-121" target="94Th0ascxjRRAc_AjEBm-19" edge="1">
          <mxGeometry relative="1" as="geometry">
            <mxPoint x="280" y="595" as="sourcePoint" />
            <mxPoint x="280" y="420" as="targetPoint" />
          </mxGeometry>
        </mxCell>
        <mxCell id="94Th0ascxjRRAc_AjEBm-246" value="IS-A" style="edgeLabel;html=1;align=center;verticalAlign=middle;resizable=0;points=[];fontSize=12;fontFamily=Helvetica;fontColor=default;" parent="94Th0ascxjRRAc_AjEBm-245" vertex="1" connectable="0">
          <mxGeometry x="-0.1078" relative="1" as="geometry">
            <mxPoint y="1" as="offset" />
          </mxGeometry>
        </mxCell>
        <mxCell id="94Th0ascxjRRAc_AjEBm-247" value="biography" style="ellipse;whiteSpace=wrap;html=1;align=center;" parent="1" vertex="1">
          <mxGeometry x="1126" y="215" width="100" height="40" as="geometry" />
        </mxCell>
        <mxCell id="94Th0ascxjRRAc_AjEBm-248" value="profilePictureURL" style="ellipse;whiteSpace=wrap;html=1;align=center;" parent="1" vertex="1">
          <mxGeometry x="1076" y="301.25" width="110" height="40" as="geometry" />
        </mxCell>
        <mxCell id="94Th0ascxjRRAc_AjEBm-249" value="lastName" style="ellipse;whiteSpace=wrap;html=1;align=center;" parent="1" vertex="1">
          <mxGeometry x="1176" y="125" width="100" height="40" as="geometry" />
        </mxCell>
        <mxCell id="94Th0ascxjRRAc_AjEBm-250" value="firstName" style="ellipse;whiteSpace=wrap;html=1;align=center;" parent="1" vertex="1">
          <mxGeometry x="1156" y="50" width="100" height="40" as="geometry" />
        </mxCell>
        <mxCell id="94Th0ascxjRRAc_AjEBm-251" value="userId" style="ellipse;whiteSpace=wrap;html=1;align=center;fontStyle=4;" parent="1" vertex="1">
          <mxGeometry x="1076" width="100" height="40" as="geometry" />
        </mxCell>
        <mxCell id="94Th0ascxjRRAc_AjEBm-264" style="edgeStyle=orthogonalEdgeStyle;curved=1;rounded=0;orthogonalLoop=1;jettySize=auto;html=1;exitX=0.5;exitY=1;exitDx=0;exitDy=0;entryX=0.5;entryY=0;entryDx=0;entryDy=0;fontFamily=Helvetica;fontSize=12;fontColor=default;" parent="1" source="94Th0ascxjRRAc_AjEBm-252" target="94Th0ascxjRRAc_AjEBm-263" edge="1">
          <mxGeometry relative="1" as="geometry" />
        </mxCell>
        <mxCell id="94Th0ascxjRRAc_AjEBm-265" style="edgeStyle=orthogonalEdgeStyle;curved=1;rounded=0;orthogonalLoop=1;jettySize=auto;html=1;exitX=0.5;exitY=1;exitDx=0;exitDy=0;entryX=0.5;entryY=0;entryDx=0;entryDy=0;fontFamily=Helvetica;fontSize=12;fontColor=default;" parent="1" source="94Th0ascxjRRAc_AjEBm-252" target="94Th0ascxjRRAc_AjEBm-262" edge="1">
          <mxGeometry relative="1" as="geometry" />
        </mxCell>
        <mxCell id="94Th0ascxjRRAc_AjEBm-252" value="contactData" style="ellipse;whiteSpace=wrap;html=1;align=center;" parent="1" vertex="1">
          <mxGeometry x="796" y="255" width="100" height="40" as="geometry" />
        </mxCell>
        <mxCell id="94Th0ascxjRRAc_AjEBm-253" value="permission" style="ellipse;whiteSpace=wrap;html=1;align=center;" parent="1" vertex="1">
          <mxGeometry x="961" y="295" width="100" height="40" as="geometry" />
        </mxCell>
        <mxCell id="94Th0ascxjRRAc_AjEBm-262" value="data" style="ellipse;shape=doubleEllipse;margin=3;whiteSpace=wrap;html=1;align=center;" parent="1" vertex="1">
          <mxGeometry x="796" y="341.25" width="100" height="40" as="geometry" />
        </mxCell>
        <mxCell id="94Th0ascxjRRAc_AjEBm-263" value="ofWhat" style="ellipse;shape=doubleEllipse;margin=3;whiteSpace=wrap;html=1;align=center;" parent="1" vertex="1">
          <mxGeometry x="646" y="341.25" width="100" height="40" as="geometry" />
        </mxCell>
        <mxCell id="94Th0ascxjRRAc_AjEBm-266" style="edgeStyle=orthogonalEdgeStyle;curved=1;rounded=0;orthogonalLoop=1;jettySize=auto;html=1;exitX=0;exitY=0.5;exitDx=0;exitDy=0;entryX=1;entryY=0.5;entryDx=0;entryDy=0;fontFamily=Helvetica;fontSize=12;fontColor=default;" parent="1" source="94Th0ascxjRRAc_AjEBm-122" target="94Th0ascxjRRAc_AjEBm-19" edge="1">
          <mxGeometry relative="1" as="geometry">
            <mxPoint x="656" y="255" as="sourcePoint" />
            <mxPoint x="656" y="-182" as="targetPoint" />
          </mxGeometry>
        </mxCell>
        <mxCell id="94Th0ascxjRRAc_AjEBm-267" value="IS-A" style="edgeLabel;html=1;align=center;verticalAlign=middle;resizable=0;points=[];fontSize=12;fontFamily=Helvetica;fontColor=default;" parent="94Th0ascxjRRAc_AjEBm-266" vertex="1" connectable="0">
          <mxGeometry x="-0.1078" relative="1" as="geometry">
            <mxPoint y="1" as="offset" />
          </mxGeometry>
        </mxCell>
        <mxCell id="94Th0ascxjRRAc_AjEBm-269" value="HAS" style="shape=rhombus;perimeter=rhombusPerimeter;whiteSpace=wrap;html=1;align=center;strokeColor=default;verticalAlign=middle;fontFamily=Helvetica;fontSize=12;fontColor=default;fillColor=default;" parent="1" vertex="1">
          <mxGeometry x="876" y="380" width="120" height="60" as="geometry" />
        </mxCell>
        <mxCell id="94Th0ascxjRRAc_AjEBm-270" value="" style="endArrow=none;html=1;rounded=0;fontFamily=Helvetica;fontSize=12;fontColor=default;curved=1;entryX=0.5;entryY=0;entryDx=0;entryDy=0;exitX=0.5;exitY=1;exitDx=0;exitDy=0;" parent="1" source="94Th0ascxjRRAc_AjEBm-122" target="94Th0ascxjRRAc_AjEBm-269" edge="1">
          <mxGeometry relative="1" as="geometry">
            <mxPoint x="826" y="341.25" as="sourcePoint" />
            <mxPoint x="1036" y="341.25" as="targetPoint" />
          </mxGeometry>
        </mxCell>
        <mxCell id="94Th0ascxjRRAc_AjEBm-271" value="1" style="edgeLabel;html=1;align=center;verticalAlign=middle;resizable=0;points=[];fontSize=12;fontFamily=Helvetica;fontColor=default;" parent="94Th0ascxjRRAc_AjEBm-270" vertex="1" connectable="0">
          <mxGeometry x="0.024" y="-1" relative="1" as="geometry">
            <mxPoint as="offset" />
          </mxGeometry>
        </mxCell>
        <mxCell id="94Th0ascxjRRAc_AjEBm-279" value="&lt;u&gt;courseId&lt;/u&gt;" style="ellipse;whiteSpace=wrap;html=1;align=center;" parent="1" vertex="1">
          <mxGeometry x="1336" y="580" width="100" height="40" as="geometry" />
        </mxCell>
        <mxCell id="94Th0ascxjRRAc_AjEBm-280" value="semester" style="ellipse;whiteSpace=wrap;html=1;align=center;" parent="1" vertex="1">
          <mxGeometry x="1626" y="680" width="100" height="40" as="geometry" />
        </mxCell>
        <mxCell id="94Th0ascxjRRAc_AjEBm-281" value="department" style="ellipse;whiteSpace=wrap;html=1;align=center;" parent="1" vertex="1">
          <mxGeometry x="1216" y="670" width="100" height="40" as="geometry" />
        </mxCell>
        <mxCell id="94Th0ascxjRRAc_AjEBm-283" value="description" style="ellipse;whiteSpace=wrap;html=1;align=center;" parent="1" vertex="1">
          <mxGeometry x="1236" y="945" width="100" height="40" as="geometry" />
        </mxCell>
        <mxCell id="94Th0ascxjRRAc_AjEBm-284" value="name" style="ellipse;whiteSpace=wrap;html=1;align=center;" parent="1" vertex="1">
          <mxGeometry x="1636" y="730" width="100" height="40" as="geometry" />
        </mxCell>
        <mxCell id="94Th0ascxjRRAc_AjEBm-285" value="creditHours" style="ellipse;whiteSpace=wrap;html=1;align=center;" parent="1" vertex="1">
          <mxGeometry x="1226" y="890" width="100" height="40" as="geometry" />
        </mxCell>
        <mxCell id="94Th0ascxjRRAc_AjEBm-286" value="code" style="ellipse;whiteSpace=wrap;html=1;align=center;" parent="1" vertex="1">
          <mxGeometry x="1206" y="730" width="100" height="40" as="geometry" />
        </mxCell>
        <mxCell id="94Th0ascxjRRAc_AjEBm-288" style="rounded=0;orthogonalLoop=1;jettySize=auto;html=1;exitX=0.5;exitY=0;exitDx=0;exitDy=0;entryX=0.5;entryY=1;entryDx=0;entryDy=0;fontFamily=Helvetica;fontSize=12;fontColor=default;" parent="1" source="94Th0ascxjRRAc_AjEBm-123" target="94Th0ascxjRRAc_AjEBm-111" edge="1">
          <mxGeometry relative="1" as="geometry">
            <mxPoint x="1394.67" y="850" as="sourcePoint" />
            <mxPoint x="1394.67" y="413" as="targetPoint" />
          </mxGeometry>
        </mxCell>
        <mxCell id="94Th0ascxjRRAc_AjEBm-289" value="IS-A" style="edgeLabel;html=1;align=center;verticalAlign=middle;resizable=0;points=[];fontSize=12;fontFamily=Helvetica;fontColor=default;" parent="94Th0ascxjRRAc_AjEBm-288" vertex="1" connectable="0">
          <mxGeometry x="-0.1078" relative="1" as="geometry">
            <mxPoint y="1" as="offset" />
          </mxGeometry>
        </mxCell>
        <mxCell id="94Th0ascxjRRAc_AjEBm-290" value="IN" style="shape=rhombus;perimeter=rhombusPerimeter;whiteSpace=wrap;html=1;align=center;strokeColor=default;verticalAlign=middle;fontFamily=Helvetica;fontSize=12;fontColor=default;fillColor=default;" parent="1" vertex="1">
          <mxGeometry x="2278.5" y="562.5" width="120" height="60" as="geometry" />
        </mxCell>
        <mxCell id="94Th0ascxjRRAc_AjEBm-294" value="" style="endArrow=none;html=1;rounded=0;fontFamily=Helvetica;fontSize=12;fontColor=default;curved=1;entryX=0.5;entryY=1;entryDx=0;entryDy=0;exitX=0.5;exitY=0;exitDx=0;exitDy=0;" parent="1" source="94Th0ascxjRRAc_AjEBm-160" target="94Th0ascxjRRAc_AjEBm-290" edge="1">
          <mxGeometry relative="1" as="geometry">
            <mxPoint x="2248.5" y="752.5" as="sourcePoint" />
            <mxPoint x="2243.5" y="632.5" as="targetPoint" />
          </mxGeometry>
        </mxCell>
        <mxCell id="94Th0ascxjRRAc_AjEBm-295" value="M" style="edgeLabel;html=1;align=center;verticalAlign=middle;resizable=0;points=[];fontSize=12;fontFamily=Helvetica;fontColor=default;" parent="94Th0ascxjRRAc_AjEBm-294" vertex="1" connectable="0">
          <mxGeometry x="0.0593" y="-1" relative="1" as="geometry">
            <mxPoint as="offset" />
          </mxGeometry>
        </mxCell>
        <mxCell id="94Th0ascxjRRAc_AjEBm-296" value="" style="shape=link;html=1;rounded=0;fontFamily=Helvetica;fontSize=12;fontColor=default;curved=1;exitX=0.5;exitY=1;exitDx=0;exitDy=0;entryX=0.5;entryY=0;entryDx=0;entryDy=0;" parent="1" source="94Th0ascxjRRAc_AjEBm-269" target="94Th0ascxjRRAc_AjEBm-29" edge="1">
          <mxGeometry relative="1" as="geometry">
            <mxPoint x="966" y="360" as="sourcePoint" />
            <mxPoint x="1126" y="360" as="targetPoint" />
          </mxGeometry>
        </mxCell>
        <mxCell id="94Th0ascxjRRAc_AjEBm-297" value="N" style="resizable=0;html=1;whiteSpace=wrap;align=right;verticalAlign=bottom;strokeColor=default;fontFamily=Helvetica;fontSize=12;fontColor=default;fillColor=default;" parent="94Th0ascxjRRAc_AjEBm-296" connectable="0" vertex="1">
          <mxGeometry x="1" relative="1" as="geometry" />
        </mxCell>
        <mxCell id="94Th0ascxjRRAc_AjEBm-298" value="" style="shape=link;html=1;rounded=0;fontFamily=Helvetica;fontSize=12;fontColor=default;curved=1;exitX=0.5;exitY=1;exitDx=0;exitDy=0;entryX=0.5;entryY=0;entryDx=0;entryDy=0;" parent="1" source="94Th0ascxjRRAc_AjEBm-132" target="94Th0ascxjRRAc_AjEBm-290" edge="1">
          <mxGeometry relative="1" as="geometry">
            <mxPoint x="2303.5" y="612.5" as="sourcePoint" />
            <mxPoint x="2413.5" y="482.5" as="targetPoint" />
          </mxGeometry>
        </mxCell>
        <mxCell id="94Th0ascxjRRAc_AjEBm-299" value="N" style="resizable=0;html=1;whiteSpace=wrap;align=right;verticalAlign=bottom;strokeColor=default;fontFamily=Helvetica;fontSize=12;fontColor=default;fillColor=default;" parent="94Th0ascxjRRAc_AjEBm-298" connectable="0" vertex="1">
          <mxGeometry x="1" relative="1" as="geometry" />
        </mxCell>
        <mxCell id="94Th0ascxjRRAc_AjEBm-305" value="IN" style="shape=rhombus;perimeter=rhombusPerimeter;whiteSpace=wrap;html=1;align=center;strokeColor=default;verticalAlign=middle;fontFamily=Helvetica;fontSize=12;fontColor=default;fillColor=default;" parent="1" vertex="1">
          <mxGeometry x="2108.5" y="357.5" width="120" height="60" as="geometry" />
        </mxCell>
        <mxCell id="94Th0ascxjRRAc_AjEBm-306" value="" style="endArrow=none;html=1;rounded=0;fontFamily=Helvetica;fontSize=12;fontColor=default;curved=1;entryX=0;entryY=0.5;entryDx=0;entryDy=0;exitX=1;exitY=0.5;exitDx=0;exitDy=0;" parent="1" source="94Th0ascxjRRAc_AjEBm-195" target="94Th0ascxjRRAc_AjEBm-305" edge="1">
          <mxGeometry relative="1" as="geometry">
            <mxPoint x="2378.5" y="680" as="sourcePoint" />
            <mxPoint x="2123.5" y="385" as="targetPoint" />
          </mxGeometry>
        </mxCell>
        <mxCell id="94Th0ascxjRRAc_AjEBm-307" value="1" style="edgeLabel;html=1;align=center;verticalAlign=middle;resizable=0;points=[];fontSize=12;fontFamily=Helvetica;fontColor=default;" parent="94Th0ascxjRRAc_AjEBm-306" vertex="1" connectable="0">
          <mxGeometry x="0.0593" y="-1" relative="1" as="geometry">
            <mxPoint as="offset" />
          </mxGeometry>
        </mxCell>
        <mxCell id="94Th0ascxjRRAc_AjEBm-308" value="" style="shape=link;html=1;rounded=0;fontFamily=Helvetica;fontSize=12;fontColor=default;curved=1;exitX=0;exitY=0.5;exitDx=0;exitDy=0;entryX=1;entryY=0.5;entryDx=0;entryDy=0;" parent="1" source="94Th0ascxjRRAc_AjEBm-132" target="94Th0ascxjRRAc_AjEBm-305" edge="1">
          <mxGeometry relative="1" as="geometry">
            <mxPoint x="2183.5" y="352.5" as="sourcePoint" />
            <mxPoint x="2258.5" y="412.5" as="targetPoint" />
          </mxGeometry>
        </mxCell>
        <mxCell id="94Th0ascxjRRAc_AjEBm-309" value="1" style="resizable=0;html=1;whiteSpace=wrap;align=right;verticalAlign=bottom;strokeColor=default;fontFamily=Helvetica;fontSize=12;fontColor=default;fillColor=default;" parent="94Th0ascxjRRAc_AjEBm-308" connectable="0" vertex="1">
          <mxGeometry x="1" relative="1" as="geometry" />
        </mxCell>
        <mxCell id="94Th0ascxjRRAc_AjEBm-311" value="HAS" style="shape=rhombus;perimeter=rhombusPerimeter;whiteSpace=wrap;html=1;align=center;strokeColor=default;verticalAlign=middle;fontFamily=Helvetica;fontSize=12;fontColor=default;fillColor=default;" parent="1" vertex="1">
          <mxGeometry x="1898.5" y="785" width="120" height="60" as="geometry" />
        </mxCell>
        <mxCell id="94Th0ascxjRRAc_AjEBm-314" value="" style="shape=link;html=1;rounded=0;fontFamily=Helvetica;fontSize=12;fontColor=default;curved=1;exitX=0.5;exitY=1;exitDx=0;exitDy=0;entryX=0.5;entryY=0;entryDx=0;entryDy=0;" parent="1" source="94Th0ascxjRRAc_AjEBm-195" target="94Th0ascxjRRAc_AjEBm-311" edge="1">
          <mxGeometry relative="1" as="geometry">
            <mxPoint x="1918.5" y="350" as="sourcePoint" />
            <mxPoint x="1793.5" y="375" as="targetPoint" />
          </mxGeometry>
        </mxCell>
        <mxCell id="94Th0ascxjRRAc_AjEBm-315" value="2" style="resizable=0;html=1;whiteSpace=wrap;align=right;verticalAlign=bottom;strokeColor=default;fontFamily=Helvetica;fontSize=12;fontColor=default;fillColor=default;" parent="94Th0ascxjRRAc_AjEBm-314" connectable="0" vertex="1">
          <mxGeometry x="1" relative="1" as="geometry" />
        </mxCell>
        <mxCell id="94Th0ascxjRRAc_AjEBm-316" value="" style="shape=link;html=1;rounded=0;fontFamily=Helvetica;fontSize=12;fontColor=default;curved=1;exitX=1;exitY=0.25;exitDx=0;exitDy=0;entryX=0;entryY=0.5;entryDx=0;entryDy=0;" parent="1" source="94Th0ascxjRRAc_AjEBm-123" target="94Th0ascxjRRAc_AjEBm-311" edge="1">
          <mxGeometry relative="1" as="geometry">
            <mxPoint x="2101" y="790" as="sourcePoint" />
            <mxPoint x="2101" y="405" as="targetPoint" />
          </mxGeometry>
        </mxCell>
        <mxCell id="94Th0ascxjRRAc_AjEBm-317" value="N" style="resizable=0;html=1;whiteSpace=wrap;align=right;verticalAlign=bottom;strokeColor=default;fontFamily=Helvetica;fontSize=12;fontColor=default;fillColor=default;" parent="94Th0ascxjRRAc_AjEBm-316" connectable="0" vertex="1">
          <mxGeometry x="1" relative="1" as="geometry" />
        </mxCell>
        <mxCell id="94Th0ascxjRRAc_AjEBm-318" value="HAS" style="shape=rhombus;perimeter=rhombusPerimeter;whiteSpace=wrap;html=1;align=center;strokeColor=default;verticalAlign=middle;fontFamily=Helvetica;fontSize=12;fontColor=default;fillColor=default;" parent="1" vertex="1">
          <mxGeometry x="2041" y="825" width="120" height="60" as="geometry" />
        </mxCell>
        <mxCell id="94Th0ascxjRRAc_AjEBm-321" value="" style="shape=link;html=1;rounded=0;fontFamily=Helvetica;fontSize=12;fontColor=default;curved=1;exitX=0;exitY=0.75;exitDx=0;exitDy=0;entryX=1;entryY=0.5;entryDx=0;entryDy=0;" parent="1" source="94Th0ascxjRRAc_AjEBm-160" target="94Th0ascxjRRAc_AjEBm-318" edge="1">
          <mxGeometry relative="1" as="geometry">
            <mxPoint x="2521" y="840" as="sourcePoint" />
            <mxPoint x="2396" y="865" as="targetPoint" />
          </mxGeometry>
        </mxCell>
        <mxCell id="94Th0ascxjRRAc_AjEBm-322" value="M" style="resizable=0;html=1;whiteSpace=wrap;align=right;verticalAlign=bottom;strokeColor=default;fontFamily=Helvetica;fontSize=12;fontColor=default;fillColor=default;" parent="94Th0ascxjRRAc_AjEBm-321" connectable="0" vertex="1">
          <mxGeometry x="1" relative="1" as="geometry" />
        </mxCell>
        <mxCell id="94Th0ascxjRRAc_AjEBm-323" value="" style="shape=link;html=1;rounded=0;fontFamily=Helvetica;fontSize=12;fontColor=default;curved=1;exitX=1;exitY=0.75;exitDx=0;exitDy=0;entryX=0;entryY=0.5;entryDx=0;entryDy=0;" parent="1" source="94Th0ascxjRRAc_AjEBm-123" target="94Th0ascxjRRAc_AjEBm-318" edge="1">
          <mxGeometry relative="1" as="geometry">
            <mxPoint x="1766" y="880" as="sourcePoint" />
            <mxPoint x="2256" y="875" as="targetPoint" />
          </mxGeometry>
        </mxCell>
        <mxCell id="94Th0ascxjRRAc_AjEBm-324" value="N" style="resizable=0;html=1;whiteSpace=wrap;align=right;verticalAlign=bottom;strokeColor=default;fontFamily=Helvetica;fontSize=12;fontColor=default;fillColor=default;" parent="94Th0ascxjRRAc_AjEBm-323" connectable="0" vertex="1">
          <mxGeometry x="1" relative="1" as="geometry" />
        </mxCell>
        <mxCell id="94Th0ascxjRRAc_AjEBm-325" value="HAS" style="shape=rhombus;perimeter=rhombusPerimeter;whiteSpace=wrap;html=1;align=center;strokeColor=default;verticalAlign=middle;fontFamily=Helvetica;fontSize=12;fontColor=default;fillColor=default;" parent="1" vertex="1">
          <mxGeometry x="1686" y="1350" width="120" height="60" as="geometry" />
        </mxCell>
        <mxCell id="94Th0ascxjRRAc_AjEBm-326" value="" style="endArrow=none;html=1;rounded=0;fontFamily=Helvetica;fontSize=12;fontColor=default;curved=1;exitX=0;exitY=0.5;exitDx=0;exitDy=0;entryX=1;entryY=0.5;entryDx=0;entryDy=0;" parent="1" source="94Th0ascxjRRAc_AjEBm-143" target="94Th0ascxjRRAc_AjEBm-325" edge="1">
          <mxGeometry relative="1" as="geometry">
            <mxPoint x="3001" y="1610" as="sourcePoint" />
            <mxPoint x="1806" y="1390" as="targetPoint" />
          </mxGeometry>
        </mxCell>
        <mxCell id="94Th0ascxjRRAc_AjEBm-327" value="M" style="edgeLabel;html=1;align=center;verticalAlign=middle;resizable=0;points=[];fontSize=12;fontFamily=Helvetica;fontColor=default;" parent="94Th0ascxjRRAc_AjEBm-326" vertex="1" connectable="0">
          <mxGeometry x="0.0593" y="-1" relative="1" as="geometry">
            <mxPoint as="offset" />
          </mxGeometry>
        </mxCell>
        <mxCell id="94Th0ascxjRRAc_AjEBm-330" value="" style="endArrow=none;html=1;rounded=0;fontFamily=Helvetica;fontSize=12;fontColor=default;curved=1;exitX=0;exitY=0.5;exitDx=0;exitDy=0;entryX=1;entryY=0.5;entryDx=0;entryDy=0;" parent="1" source="94Th0ascxjRRAc_AjEBm-325" target="94Th0ascxjRRAc_AjEBm-170" edge="1">
          <mxGeometry relative="1" as="geometry">
            <mxPoint x="3011" y="1545" as="sourcePoint" />
            <mxPoint x="2316" y="1410" as="targetPoint" />
          </mxGeometry>
        </mxCell>
        <mxCell id="94Th0ascxjRRAc_AjEBm-331" value="N" style="edgeLabel;html=1;align=center;verticalAlign=middle;resizable=0;points=[];fontSize=12;fontFamily=Helvetica;fontColor=default;" parent="94Th0ascxjRRAc_AjEBm-330" vertex="1" connectable="0">
          <mxGeometry x="0.0593" y="-1" relative="1" as="geometry">
            <mxPoint as="offset" />
          </mxGeometry>
        </mxCell>
        <mxCell id="94Th0ascxjRRAc_AjEBm-333" value="HAS" style="shape=rhombus;perimeter=rhombusPerimeter;whiteSpace=wrap;html=1;align=center;strokeColor=default;verticalAlign=middle;fontFamily=Helvetica;fontSize=12;fontColor=default;fillColor=default;" parent="1" vertex="1">
          <mxGeometry x="1526" y="1040" width="120" height="60" as="geometry" />
        </mxCell>
        <mxCell id="94Th0ascxjRRAc_AjEBm-334" value="OF" style="shape=rhombus;perimeter=rhombusPerimeter;whiteSpace=wrap;html=1;align=center;strokeColor=default;verticalAlign=middle;fontFamily=Helvetica;fontSize=12;fontColor=default;fillColor=default;" parent="1" vertex="1">
          <mxGeometry x="1326" y="1040" width="120" height="60" as="geometry" />
        </mxCell>
        <mxCell id="94Th0ascxjRRAc_AjEBm-335" value="HAS" style="shape=rhombus;perimeter=rhombusPerimeter;whiteSpace=wrap;html=1;align=center;strokeColor=default;verticalAlign=middle;fontFamily=Helvetica;fontSize=12;fontColor=default;fillColor=default;" parent="1" vertex="1">
          <mxGeometry x="1431" y="1115" width="120" height="60" as="geometry" />
        </mxCell>
        <mxCell id="94Th0ascxjRRAc_AjEBm-336" value="" style="endArrow=none;html=1;rounded=0;fontFamily=Helvetica;fontSize=12;fontColor=default;curved=1;entryX=1;entryY=0.5;entryDx=0;entryDy=0;exitX=0;exitY=0.5;exitDx=0;exitDy=0;" parent="1" source="94Th0ascxjRRAc_AjEBm-181" target="94Th0ascxjRRAc_AjEBm-333" edge="1">
          <mxGeometry relative="1" as="geometry">
            <mxPoint x="1960.4700000000003" y="1135" as="sourcePoint" />
            <mxPoint x="1960.4700000000003" y="930" as="targetPoint" />
          </mxGeometry>
        </mxCell>
        <mxCell id="94Th0ascxjRRAc_AjEBm-337" value="N" style="edgeLabel;html=1;align=center;verticalAlign=middle;resizable=0;points=[];fontSize=12;fontFamily=Helvetica;fontColor=default;" parent="94Th0ascxjRRAc_AjEBm-336" vertex="1" connectable="0">
          <mxGeometry x="0.0593" y="-1" relative="1" as="geometry">
            <mxPoint as="offset" />
          </mxGeometry>
        </mxCell>
        <mxCell id="94Th0ascxjRRAc_AjEBm-339" value="" style="endArrow=none;html=1;rounded=0;fontFamily=Helvetica;fontSize=12;fontColor=default;curved=1;entryX=0.75;entryY=1;entryDx=0;entryDy=0;exitX=0.5;exitY=0;exitDx=0;exitDy=0;" parent="1" source="94Th0ascxjRRAc_AjEBm-333" target="94Th0ascxjRRAc_AjEBm-123" edge="1">
          <mxGeometry relative="1" as="geometry">
            <mxPoint x="1766" y="1080" as="sourcePoint" />
            <mxPoint x="1656" y="1080" as="targetPoint" />
          </mxGeometry>
        </mxCell>
        <mxCell id="94Th0ascxjRRAc_AjEBm-340" value="M" style="edgeLabel;html=1;align=center;verticalAlign=middle;resizable=0;points=[];fontSize=12;fontFamily=Helvetica;fontColor=default;" parent="94Th0ascxjRRAc_AjEBm-339" vertex="1" connectable="0">
          <mxGeometry x="0.0593" y="-1" relative="1" as="geometry">
            <mxPoint as="offset" />
          </mxGeometry>
        </mxCell>
        <mxCell id="94Th0ascxjRRAc_AjEBm-343" value="" style="shape=link;html=1;rounded=0;fontFamily=Helvetica;fontSize=12;fontColor=default;curved=1;exitX=1;exitY=0.5;exitDx=0;exitDy=0;entryX=0;entryY=0.5;entryDx=0;entryDy=0;" parent="1" source="94Th0ascxjRRAc_AjEBm-175" target="94Th0ascxjRRAc_AjEBm-334" edge="1">
          <mxGeometry relative="1" as="geometry">
            <mxPoint x="1206" y="990" as="sourcePoint" />
            <mxPoint x="1197.2308443509614" y="1020" as="targetPoint" />
          </mxGeometry>
        </mxCell>
        <mxCell id="94Th0ascxjRRAc_AjEBm-344" value="N" style="resizable=0;html=1;whiteSpace=wrap;align=right;verticalAlign=bottom;strokeColor=default;fontFamily=Helvetica;fontSize=12;fontColor=default;fillColor=default;" parent="94Th0ascxjRRAc_AjEBm-343" connectable="0" vertex="1">
          <mxGeometry x="1" relative="1" as="geometry" />
        </mxCell>
        <mxCell id="94Th0ascxjRRAc_AjEBm-345" value="" style="shape=link;html=1;rounded=0;fontFamily=Helvetica;fontSize=12;fontColor=default;curved=1;exitX=0.25;exitY=1;exitDx=0;exitDy=0;entryX=0.5;entryY=0;entryDx=0;entryDy=0;" parent="1" source="94Th0ascxjRRAc_AjEBm-123" target="94Th0ascxjRRAc_AjEBm-334" edge="1">
          <mxGeometry relative="1" as="geometry">
            <mxPoint x="1356" y="990" as="sourcePoint" />
            <mxPoint x="1456" y="990" as="targetPoint" />
          </mxGeometry>
        </mxCell>
        <mxCell id="94Th0ascxjRRAc_AjEBm-346" value="M" style="resizable=0;html=1;whiteSpace=wrap;align=right;verticalAlign=bottom;strokeColor=default;fontFamily=Helvetica;fontSize=12;fontColor=default;fillColor=default;" parent="94Th0ascxjRRAc_AjEBm-345" connectable="0" vertex="1">
          <mxGeometry x="1" relative="1" as="geometry" />
        </mxCell>
        <mxCell id="94Th0ascxjRRAc_AjEBm-347" value="" style="endArrow=none;html=1;rounded=0;fontFamily=Helvetica;fontSize=12;fontColor=default;curved=1;entryX=0.5;entryY=1;entryDx=0;entryDy=0;exitX=0.5;exitY=0;exitDx=0;exitDy=0;" parent="1" source="94Th0ascxjRRAc_AjEBm-170" target="94Th0ascxjRRAc_AjEBm-335" edge="1">
          <mxGeometry relative="1" as="geometry">
            <mxPoint x="1631" y="1255" as="sourcePoint" />
            <mxPoint x="1561" y="1090" as="targetPoint" />
          </mxGeometry>
        </mxCell>
        <mxCell id="94Th0ascxjRRAc_AjEBm-348" value="N" style="edgeLabel;html=1;align=center;verticalAlign=middle;resizable=0;points=[];fontSize=12;fontFamily=Helvetica;fontColor=default;" parent="94Th0ascxjRRAc_AjEBm-347" vertex="1" connectable="0">
          <mxGeometry x="0.0593" y="-1" relative="1" as="geometry">
            <mxPoint as="offset" />
          </mxGeometry>
        </mxCell>
        <mxCell id="94Th0ascxjRRAc_AjEBm-349" value="" style="endArrow=none;html=1;rounded=0;fontFamily=Helvetica;fontSize=12;fontColor=default;curved=1;entryX=0.5;entryY=1;entryDx=0;entryDy=0;exitX=0.5;exitY=0;exitDx=0;exitDy=0;" parent="1" source="94Th0ascxjRRAc_AjEBm-335" target="94Th0ascxjRRAc_AjEBm-123" edge="1">
          <mxGeometry relative="1" as="geometry">
            <mxPoint x="1501" y="1280" as="sourcePoint" />
            <mxPoint x="1501" y="1185" as="targetPoint" />
          </mxGeometry>
        </mxCell>
        <mxCell id="94Th0ascxjRRAc_AjEBm-350" value="M" style="edgeLabel;html=1;align=center;verticalAlign=middle;resizable=0;points=[];fontSize=12;fontFamily=Helvetica;fontColor=default;" parent="94Th0ascxjRRAc_AjEBm-349" vertex="1" connectable="0">
          <mxGeometry x="0.0593" y="-1" relative="1" as="geometry">
            <mxPoint as="offset" />
          </mxGeometry>
        </mxCell>
        <mxCell id="94Th0ascxjRRAc_AjEBm-351" value="OF" style="shape=rhombus;perimeter=rhombusPerimeter;whiteSpace=wrap;html=1;align=center;strokeColor=default;verticalAlign=middle;fontFamily=Helvetica;fontSize=12;fontColor=default;fillColor=default;" parent="1" vertex="1">
          <mxGeometry x="1156" y="825" width="120" height="60" as="geometry" />
        </mxCell>
        <mxCell id="94Th0ascxjRRAc_AjEBm-354" value="" style="shape=link;html=1;rounded=0;fontFamily=Helvetica;fontSize=12;fontColor=default;curved=1;exitX=0;exitY=0.75;exitDx=0;exitDy=0;entryX=1;entryY=0.5;entryDx=0;entryDy=0;" parent="1" source="94Th0ascxjRRAc_AjEBm-123" target="94Th0ascxjRRAc_AjEBm-351" edge="1">
          <mxGeometry relative="1" as="geometry">
            <mxPoint x="1416" y="835" as="sourcePoint" />
            <mxPoint x="1291" y="860" as="targetPoint" />
          </mxGeometry>
        </mxCell>
        <mxCell id="94Th0ascxjRRAc_AjEBm-355" value="M" style="resizable=0;html=1;whiteSpace=wrap;align=right;verticalAlign=bottom;strokeColor=default;fontFamily=Helvetica;fontSize=12;fontColor=default;fillColor=default;" parent="94Th0ascxjRRAc_AjEBm-354" connectable="0" vertex="1">
          <mxGeometry x="1" relative="1" as="geometry" />
        </mxCell>
        <mxCell id="94Th0ascxjRRAc_AjEBm-356" value="" style="shape=link;html=1;rounded=0;fontFamily=Helvetica;fontSize=12;fontColor=default;curved=1;exitX=1;exitY=0.5;exitDx=0;exitDy=0;entryX=0;entryY=0.5;entryDx=0;entryDy=0;" parent="1" source="94Th0ascxjRRAc_AjEBm-185" target="94Th0ascxjRRAc_AjEBm-351" edge="1">
          <mxGeometry relative="1" as="geometry">
            <mxPoint x="986" y="856" as="sourcePoint" />
            <mxPoint x="1166" y="854" as="targetPoint" />
          </mxGeometry>
        </mxCell>
        <mxCell id="94Th0ascxjRRAc_AjEBm-357" value="N" style="resizable=0;html=1;whiteSpace=wrap;align=right;verticalAlign=bottom;strokeColor=default;fontFamily=Helvetica;fontSize=12;fontColor=default;fillColor=default;" parent="94Th0ascxjRRAc_AjEBm-356" connectable="0" vertex="1">
          <mxGeometry x="1" relative="1" as="geometry" />
        </mxCell>
        <mxCell id="94Th0ascxjRRAc_AjEBm-380" value="OF" style="shape=rhombus;perimeter=rhombusPerimeter;whiteSpace=wrap;html=1;align=center;strokeColor=default;verticalAlign=middle;fontFamily=Helvetica;fontSize=12;fontColor=default;fillColor=default;" parent="1" vertex="1">
          <mxGeometry x="751" y="745" width="120" height="60" as="geometry" />
        </mxCell>
        <mxCell id="94Th0ascxjRRAc_AjEBm-381" value="" style="shape=link;html=1;rounded=0;fontFamily=Helvetica;fontSize=12;fontColor=default;curved=1;exitX=0;exitY=0.25;exitDx=0;exitDy=0;entryX=1;entryY=0.5;entryDx=0;entryDy=0;" parent="1" source="94Th0ascxjRRAc_AjEBm-123" target="94Th0ascxjRRAc_AjEBm-380" edge="1">
          <mxGeometry relative="1" as="geometry">
            <mxPoint x="1386" y="799.4100000000001" as="sourcePoint" />
            <mxPoint x="1221" y="800.4100000000001" as="targetPoint" />
          </mxGeometry>
        </mxCell>
        <mxCell id="94Th0ascxjRRAc_AjEBm-382" value="N" style="resizable=0;html=1;whiteSpace=wrap;align=right;verticalAlign=bottom;strokeColor=default;fontFamily=Helvetica;fontSize=12;fontColor=default;fillColor=default;" parent="94Th0ascxjRRAc_AjEBm-381" connectable="0" vertex="1">
          <mxGeometry x="1" relative="1" as="geometry" />
        </mxCell>
        <mxCell id="94Th0ascxjRRAc_AjEBm-383" value="" style="shape=link;html=1;rounded=0;fontFamily=Helvetica;fontSize=12;fontColor=default;curved=1;exitX=1;exitY=0.5;exitDx=0;exitDy=0;entryX=0;entryY=0.5;entryDx=0;entryDy=0;" parent="1" source="94Th0ascxjRRAc_AjEBm-121" target="94Th0ascxjRRAc_AjEBm-380" edge="1">
          <mxGeometry relative="1" as="geometry">
            <mxPoint x="481" y="789" as="sourcePoint" />
            <mxPoint x="1051" y="815" as="targetPoint" />
          </mxGeometry>
        </mxCell>
        <mxCell id="94Th0ascxjRRAc_AjEBm-384" value="M" style="resizable=0;html=1;whiteSpace=wrap;align=right;verticalAlign=bottom;strokeColor=default;fontFamily=Helvetica;fontSize=12;fontColor=default;fillColor=default;" parent="94Th0ascxjRRAc_AjEBm-383" connectable="0" vertex="1">
          <mxGeometry x="1" relative="1" as="geometry" />
        </mxCell>
        <mxCell id="94Th0ascxjRRAc_AjEBm-426" value="prerequisites" style="ellipse;shape=doubleEllipse;margin=3;whiteSpace=wrap;html=1;align=center;strokeColor=default;verticalAlign=middle;fontFamily=Helvetica;fontSize=12;fontColor=default;fillColor=default;" parent="1" vertex="1">
          <mxGeometry x="1300" y="450" width="100" height="40" as="geometry" />
        </mxCell>
        <mxCell id="94Th0ascxjRRAc_AjEBm-427" value="prerequisites" style="ellipse;shape=doubleEllipse;margin=3;whiteSpace=wrap;html=1;align=center;strokeColor=default;verticalAlign=middle;fontFamily=Helvetica;fontSize=12;fontColor=default;fillColor=default;" parent="1" vertex="1">
          <mxGeometry x="1236" y="620" width="100" height="40" as="geometry" />
        </mxCell>
        <mxCell id="Hyo_tde0UCPhsCr7JcuF-1" value="&lt;u&gt;UserAccountID&lt;/u&gt;" style="ellipse;whiteSpace=wrap;html=1;align=center;" parent="1" vertex="1">
          <mxGeometry x="2008.5" y="1080" width="100" height="40" as="geometry" />
        </mxCell>
        <mxCell id="Hyo_tde0UCPhsCr7JcuF-5" value="PasswordHash" style="ellipse;whiteSpace=wrap;html=1;align=center;" parent="1" vertex="1">
          <mxGeometry x="2423.5" y="1220" width="100" height="40" as="geometry" />
        </mxCell>
        <mxCell id="Hyo_tde0UCPhsCr7JcuF-6" value="Email" style="ellipse;whiteSpace=wrap;html=1;align=center;" parent="1" vertex="1">
          <mxGeometry x="2313.5" y="1280" width="100" height="40" as="geometry" />
        </mxCell>
        <mxCell id="Hyo_tde0UCPhsCr7JcuF-7" value="PasswordSalt" style="ellipse;whiteSpace=wrap;html=1;align=center;" parent="1" vertex="1">
          <mxGeometry x="2433.5" y="1080" width="100" height="40" as="geometry" />
        </mxCell>
        <mxCell id="Hyo_tde0UCPhsCr7JcuF-8" value="PasswordDate" style="ellipse;whiteSpace=wrap;html=1;align=center;" parent="1" vertex="1">
          <mxGeometry x="2223.5" y="1000" width="100" height="40" as="geometry" />
        </mxCell>
      </root>
    </mxGraphModel>
  </diagram>
</mxfile>
